<svg xmlns="http://www.w3.org/2000/svg" width="943.2" height="325.18" viewBox="0 0 943.2 325.18"><g data-name="Group 27126"><path data-name="Path 89953" d="M0 325.18c28.36-10.16 35.51-62.09 319.16-55.74s472.36 8 513.64 2.61c44.8-5.87 77.33 2.13 110.4 53.13z" fill="#71b051"/><path data-name="Line 11141" fill="none" stroke="#fff" stroke-miterlimit="10" stroke-width="1.06" d="M356.732 221.35v-2.11"/><path data-name="Line 11143" fill="none" stroke="#fff" stroke-miterlimit="10" stroke-width="1.06" d="M356.732 2.11V0"/><path data-name="Path 89956" d="M194.5 181.58a296.729 296.729 0 0 0-4.71 100" fill="none" stroke="#9ec41a" stroke-miterlimit="10" stroke-width="1.29"/><path data-name="Path 89957" d="M210.53 241.03c-8.1.06-17.37 2.11-22.37 23.39 14.9-4.19 23.44-8.75 22.37-23.39z" fill="#9ec41a"/><path data-name="Path 89958" d="M166.57 234.25s-1.87 26.72 21.4 27c-2.22-21.58-8.38-24.32-21.4-27z" fill="#9ec41a"/><path data-name="Path 89959" d="M207.39 215.62s-18.31.95-19.71 21.55c9.02-1.21 20.62-5.28 19.71-21.55z" fill="#9ec41a"/><path data-name="Path 89960" d="M173.6 204.46s-2.51 21.84 14 25.79c-1.42-20.63-4.94-20.76-14-25.79z" fill="#9ec41a"/><path data-name="Path 89961" d="M206.37 193.94s-15.14-1-16.95 17.66c10.6.81 13.38-2.24 16.95-17.66z" fill="#9ec41a"/><path data-name="Path 89962" d="M174.12 186.25s1.66 17.38 15.74 20.82c-1.36-10.71-2.44-20.99-15.74-20.82z" fill="#9ec41a"/><path data-name="Path 89963" d="M206.1 177.54a19.44 19.44 0 0 0-13.37 12.49c3.57 2.93 10.52 4.07 13.37-12.49z" fill="#9ec41a"/><path data-name="Path 89964" d="M178.75 174.89s2.82 14 13.7 13c0-.01-2.5-21.43-13.7-13z" fill="#9ec41a"/><path data-name="Path 89965" d="M193.9 165.75a36.59 36.59 0 0 0-.53 18.12c6.24-5.69 5.41-7.69.53-18.12z" fill="#9ec41a"/><path data-name="Path 89966" d="M226.57 257.07c4.83-2.8 9.82-3.13 13.25-7.49s7.17-11.53 4.67-17.76-1.18-13.71.81-19.95-4.52-22.14-9.37-24.33-12.64-5.84-10.77 7.84-7.79 18-9.66 22.1-6.55 26.81 0 34 11.07 12.78 11.07 12.78z" fill="#80ce52"/><path data-name="Path 89967" d="M222.36 279.18c1.24-16.53 8.41-50.51 8.41-52.69s-.3 15.83-2.18 32.71-2 20-2 20z" fill="#9b2d69"/><path data-name="Path 89968" d="M429.96 196.43a232.881 232.881 0 0 0-11.36 77.63" fill="none" stroke="#138e68" stroke-miterlimit="10" stroke-width=".97"/><path data-name="Path 89969" d="M437.9 244.04c-6.32-.58-13.71.31-19.24 16.52 11.93-2.12 18.94-5.03 19.24-16.52z" fill="#138e68"/><path data-name="Path 89970" d="M404.12 235.37s-3.5 20.7 14.63 22.67c-.08-16.97-4.68-19.58-14.63-22.67z" fill="#138e68"/><path data-name="Path 89971" d="M437.4 223.97s-14.35-.66-17 15.3c7.1-.25 16.5-2.53 17-15.3z" fill="#138e68"/><path data-name="Path 89972" d="M411.9 212.67s-3.65 16.85 8.94 21.19c.48-16.2-2.26-16.57-8.94-21.19z" fill="#138e68"/><path data-name="Path 89973" d="M438.28 206.99s-11.74-1.95-14.59 12.46c8.21 1.46 10.61-.71 14.59-12.46z" fill="#138e68"/><path data-name="Path 89974" d="M413.71 198.51s0 13.68 10.67 17.45c-.23-8.46-.28-16.56-10.67-17.45z" fill="#138e68"/><path data-name="Path 89975" d="M439.82 194.39a16.12 16.12 0 0 0-12.06 9.23c2.71 2.71 8.35 4.21 12.06-9.23z" fill="#138e68"/><path data-name="Path 89976" d="M418.2 190s1.11 11.18 9.7 11.18c0 0-.32-16.89-9.7-11.18z" fill="#138e68"/><path data-name="Path 89977" d="M430.67 183.65a30.41 30.41 0 0 0-1.91 14.93c5.65-4.23 5.14-5.91 1.91-14.93z" fill="#138e68"/><path data-name="Path 89978" d="M467.43 258.63c4-2.29 8-2.56 10.83-6.12s5.86-9.42 3.82-14.52-1-11.2.66-16.3-3.69-18.1-7.65-19.88-10.33-4.77-8.81 6.41-6.37 14.74-7.89 18-5.35 21.91 0 27.77 9 10.45 9 10.45z" fill="#80ce52"/><path data-name="Path 89979" d="M463.99 276.72c1-13.51 6.88-41.28 6.88-43.06s-.25 12.93-1.78 26.73-1.66 16.33-1.66 16.33z" fill="#9b2d69"/><path data-name="Path 89980" d="M462.65 204.32a220.629 220.629 0 0 0-10.75 73.58" fill="none" stroke="#78a33a" stroke-miterlimit="10" stroke-width=".97"/><path data-name="Path 89981" d="M470.16 249.45c-6-.56-13 .29-18.24 15.65 11.32-2 17.98-4.76 18.24-15.65z" fill="#78a33a"/><path data-name="Path 89982" d="M438.16 241.18s-3.33 19.62 13.86 21.49c-.07-16.04-4.43-18.49-13.86-21.49z" fill="#78a33a"/><path data-name="Path 89983" d="M469.69 230.43s-13.6-.64-16.14 14.5c6.76-.24 15.63-2.4 16.14-14.5z" fill="#78a33a"/><path data-name="Path 89984" d="M445.53 219.71s-3.45 16 8.48 20.09c.44-15.35-2.11-15.71-8.48-20.09z" fill="#78a33a"/><path data-name="Path 89985" d="M470.52 214.33s-11.12-1.84-13.82 11.85c7.78 1.34 10.06-.71 13.82-11.85z" fill="#78a33a"/><path data-name="Path 89986" d="M447.24 206.29s0 13 10.12 16.54c-.23-8.02-.27-15.65-10.12-16.54z" fill="#78a33a"/><path data-name="Path 89987" d="M471.51 202.18a14.44 14.44 0 0 0-10.79 8.26c2.43 2.43 7.48 3.74 10.79-8.26z" fill="#78a33a"/><path data-name="Path 89988" d="M451.49 198.23s1.06 10.57 9.18 10.6c0 0-.29-16.02-9.18-10.6z" fill="#78a33a"/><path data-name="Path 89989" d="M463.33 192.57a27.24 27.24 0 0 0-1.72 13.36c5.06-3.75 4.59-5.28 1.72-13.36z" fill="#78a33a"/><path data-name="Path 89990" d="M438.6 256.11c4.07-2.36 8.28-2.64 11.17-6.31s6-9.72 3.94-15-1-11.55.68-16.81-3.81-18.67-7.89-20.51-10.66-4.92-9.08 6.61-6.57 15.21-8.15 18.62-5.52 22.61 0 28.65 9.33 10.82 9.33 10.82z" fill="#80ce52"/><path data-name="Path 89991" d="M435.05 274.77c1.05-13.93 7.1-42.58 7.1-44.42s-.26 13.35-1.84 27.58-1.71 16.84-1.71 16.84z" fill="#9b2d69"/><path data-name="Path 89992" d="M393.35 192.49a247.648 247.648 0 0 0 4.14 83.44" fill="none" stroke="#58b748" stroke-miterlimit="10" stroke-width=".97"/><path data-name="Path 89993" d="M411.45 240.59c-6.72.7-14.26 3.15-16.7 21.23 12.05-4.64 18.77-9.16 16.7-21.23z" fill="#58b748"/><path data-name="Path 89994" d="M374.38 238.5s.61 22.34 20 20.67c-3.62-17.72-8.96-19.5-20-20.67z" fill="#58b748"/><path data-name="Path 89995" d="M406.8 219.73s-15.13 2.26-14.64 19.49c7.39-1.73 16.74-6.04 14.64-19.49z" fill="#58b748"/><path data-name="Path 89996" d="M377.83 213.18s-.33 18.35 13.72 20.29c-2.86-17.01-5.79-16.84-13.72-20.29z" fill="#58b748"/><path data-name="Path 89997" d="M404.21 201.8s-12.66.39-12.66 16c8.87-.14 10.94-2.9 12.66-16z" fill="#58b748"/><path data-name="Path 89998" d="M376.8 198.01s2.77 14.31 14.75 16c-1.99-8.76-3.72-17.21-14.75-16z" fill="#58b748"/><path data-name="Path 89999" d="M402.66 188.18a16.22 16.22 0 0 0-10.1 11.46c3.2 2.16 9.06 2.54 10.1-11.46z" fill="#58b748"/><path data-name="Path 90000" d="M379.73 188.18s3.46 11.42 12.42 9.69c0 .02-3.8-17.58-12.42-9.69z" fill="#58b748"/><path data-name="Path 90001" d="M391.55 179.39a30.61 30.61 0 0 0 1 15.1c4.76-5.31 3.92-6.83-1-15.1z" fill="#58b748"/><path data-name="Path 90002" d="M247.14 195.89a247.761 247.761 0 0 0 4.13 83.44" fill="none" stroke="#58b748" stroke-miterlimit="10" stroke-width=".97"/><path data-name="Path 90003" d="M265.24 243.99c-6.73.7-14.26 3.15-16.7 21.23 12.04-4.68 18.77-9.16 16.7-21.23z" fill="#58b748"/><path data-name="Path 90004" d="M228.17 241.89s.61 22.35 20 20.67c-3.62-17.71-8.96-19.49-20-20.67z" fill="#58b748"/><path data-name="Path 90005" d="M260.58 223.18s-15.13 2.26-14.63 19.49c7.39-1.78 16.7-6.09 14.63-19.49z" fill="#58b748"/><path data-name="Path 90006" d="M231.62 216.58s-.33 18.35 13.71 20.29c-2.85-17.02-5.78-16.84-13.71-20.29z" fill="#58b748"/><path data-name="Path 90007" d="M258 205.18s-12.67.39-12.67 16c8.87-.12 10.94-2.88 12.67-16z" fill="#58b748"/><path data-name="Path 90008" d="M230.58 201.41s2.78 14.31 14.75 16c-1.99-8.76-3.71-17.23-14.75-16z" fill="#58b748"/><path data-name="Path 90009" d="M256.45 191.6a16.22 16.22 0 0 0-10.1 11.45c3.2 2.13 9.06 2.54 10.1-11.45z" fill="#58b748"/><path data-name="Path 90010" d="M233.52 191.6s3.46 11.42 12.42 9.69c-.04 0-3.8-17.6-12.42-9.69z" fill="#58b748"/><path data-name="Path 90011" d="M245.33 182.79a30.5 30.5 0 0 0 1 15.09c4.77-5.27 3.93-6.82-1-15.09z" fill="#58b748"/><path data-name="Path 90012" d="M479.96 258.08c-3.41-3.34-7.46-4.65-9.38-9s-3.51-11-.14-15.66 3.86-11.08 3.52-16.66 8.38-17.36 12.85-18.14 11.67-2.18 7.26 8.73 2.66 16.55 3.35 20.3-.21 23.54-7.13 28.09-11.83 8.25-11.83 8.25z" fill="#71b051"/><path data-name="Path 90013" d="M478.79 277.26c2.44-13.92 3.65-43.52 4.1-45.32s-3.07 13.14-5.06 27.49-2.52 16.95-2.52 16.95z" fill="#a86556"/><path data-name="Path 90014" d="M503.27 224.5a219.53 219.53 0 0 0-3.48 73.86" fill="none" stroke="#9ec41a" stroke-miterlimit="10" stroke-width=".97"/><path data-name="Path 90015" d="M515.11 268.42c-6 0-12.83 1.56-16.52 17.27 11.01-3.09 17.31-6.46 16.52-17.27z" fill="#9ec41a"/><path data-name="Path 90016" d="M482.64 263.41s-1.37 19.73 15.81 19.91c-1.64-15.91-6.19-17.93-15.81-19.91z" fill="#9ec41a"/><path data-name="Path 90017" d="M512.79 249.65s-13.52.7-14.55 15.92c6.66-.9 15.23-3.9 14.55-15.92z" fill="#9ec41a"/><path data-name="Path 90018" d="M487.84 241.4s-1.86 16.14 10.35 19c-1.06-15.22-3.66-15.28-10.35-19z" fill="#9ec41a"/><path data-name="Path 90019" d="M512.05 233.63s-11.19-.73-12.53 13c7.83.65 9.89-1.6 12.53-13z" fill="#9ec41a"/><path data-name="Path 90020" d="M488.22 227.95s1.23 12.84 11.63 15.38c-1.01-7.91-1.8-15.5-11.63-15.38z" fill="#9ec41a"/><path data-name="Path 90021" d="M511.84 221.52a14.34 14.34 0 0 0-9.87 9.23c2.63 2.16 7.76 3 9.87-9.23z" fill="#9ec41a"/><path data-name="Path 90022" d="M491.64 219.56s2.08 10.36 10.12 9.6c0 .02-1.86-15.83-10.12-9.6z" fill="#9ec41a"/><path data-name="Path 90023" d="M502.8 212.81a27 27 0 0 0-.39 13.38c4.64-4.23 4.02-5.67.39-13.38z" fill="#9ec41a"/><path data-name="Path 90024" d="M210.68 264.04c-4.83-2.81-9.82-3.14-13.25-7.5s-7.17-11.52-4.68-17.76 1.18-13.7-.81-20 4.52-22.14 9.37-24.32 12.64-5.84 10.77 7.83 7.8 18 9.67 22.1 6.54 26.81 0 34-11.07 12.79-11.07 12.79z" fill="#71b051"/><path data-name="Path 90025" d="M214.9 286.18c-1.25-16.52-8.42-50.51-8.42-52.69s.3 15.83 2.18 32.71 2 20 2 20z" fill="#a86556"/><path data-name="Path 90026" d="M164.9 184.56a297.05 297.05 0 0 0 11.36 99.45" fill="none" stroke="#138e68" stroke-miterlimit="10" stroke-width="1.29"/><path data-name="Path 90027" d="M190.24 240.68c-8 1.35-16.81 4.86-18.33 26.67 14.04-6.52 21.73-12.4 18.33-26.67z" fill="#138e68"/><path data-name="Path 90028" d="M145.76 241.02s2.44 26.68 25.45 23.18c-5.64-20.9-12.17-22.62-25.45-23.18z" fill="#138e68"/><path data-name="Path 90029" d="M183.07 216.1s-17.91 3.86-16 24.43c8.71-2.65 19.51-8.51 16-24.43z" fill="#138e68"/><path data-name="Path 90030" d="M147.9 210.49s1 22 18 23.21c-4.72-20.13-8.21-19.7-18-23.21z" fill="#138e68"/><path data-name="Path 90031" d="M178.6 194.86s-15.11 1.44-13.91 20.14c10.6-.89 12.86-4.35 13.91-20.14z" fill="#138e68"/><path data-name="Path 90032" d="M145.54 192.43s4.41 16.89 18.86 18c-3.05-10.33-5.76-20.25-18.86-18z" fill="#138e68"/><path data-name="Path 90033" d="M175.71 178.72a19.42 19.42 0 0 0-11.2 14.46c3.99 2.32 11.03 2.34 11.2-14.46z" fill="#138e68"/><path data-name="Path 90034" d="M148.29 180.48s5 13.39 15.6 10.63c.01 0-5.9-20.75-15.6-10.63z" fill="#138e68"/><path data-name="Path 90035" d="M161.74 169.03a36.63 36.63 0 0 0 2.38 18c5.27-6.69 4.14-8.48-2.38-18z" fill="#138e68"/><path data-name="Path 90040" d="M703.28 219.36a230.213 230.213 0 0 0 8.8 77.09" fill="none" stroke="#138e68" stroke-miterlimit="10"/><path data-name="Path 90041" d="M722.9 262.86c-6.19 1-13 3.77-14.21 20.67 10.9-5.05 16.87-9.61 14.21-20.67z" fill="#138e68"/><path data-name="Path 90042" d="M688.44 263.12s1.89 20.68 19.73 18c-4.37-16.23-9.43-17.56-19.73-18z" fill="#138e68"/><path data-name="Path 90043" d="M717.37 243.8s-13.89 3-12.41 18.94c6.75-2.05 15.12-6.56 12.41-18.94z" fill="#138e68"/><path data-name="Path 90044" d="M690.13 239.46s.79 17 13.92 18c-3.66-15.61-6.36-15.28-13.92-18z" fill="#138e68"/><path data-name="Path 90045" d="M713.9 227.34s-11.71 1.12-10.78 15.61c8.21-.68 9.96-3.36 10.78-15.61z" fill="#138e68"/><path data-name="Path 90046" d="M688.27 225.46s3.42 13.09 14.62 14c-2.36-8.05-4.47-15.78-14.62-14z" fill="#138e68"/><path data-name="Path 90047" d="M711.65 214.83a15.06 15.06 0 0 0-8.67 11.22c3.09 1.79 8.55 1.8 8.67-11.22z" fill="#138e68"/><path data-name="Path 90048" d="M690.4 216.18s3.9 10.37 12.09 8.24c0 .02-4.59-16.07-12.09-8.24z" fill="#138e68"/><path data-name="Path 90049" d="M700.83 207.32a28.48 28.48 0 0 0 1.84 13.94c4.09-5.17 3.23-6.56-1.84-13.94z" fill="#138e68"/><path data-name="Path 90050" d="M683.6 233.38a230.129 230.129 0 0 1 4.81 77.43" fill="none" stroke="#26a87d" stroke-miterlimit="10" stroke-width=".95"/><path data-name="Path 90051" d="M671.9 279.64c6.27 0 13.48 1.43 17.6 17.87-11.6-3.08-18.29-6.52-17.6-17.87z" fill="#26a87d"/><path data-name="Path 90052" d="M705.9 273.87s1.75 20.69-16.28 21.14c1.43-16.71 6.18-18.91 16.28-21.14z" fill="#26a87d"/><path data-name="Path 90053" d="M674.01 259.91s14.19.52 15.52 16.47c-7-.83-16.04-3.85-15.52-16.47z" fill="#26a87d"/><path data-name="Path 90054" d="M700.06 250.87s2.2 16.9-10.56 20.14c.87-16 3.6-16.14 10.56-20.14z" fill="#26a87d"/><path data-name="Path 90055" d="M674.54 243.09s11.73-.91 13.36 13.49c-8.22.76-10.41-1.57-13.36-13.49z" fill="#26a87d"/><path data-name="Path 90056" d="M699.45 236.76s-1.09 13.49-12 16.32c.97-8.32 1.69-16.3 12-16.32z" fill="#26a87d"/><path data-name="Path 90057" d="M674.57 230.38a15 15 0 0 1 10.5 9.53c-2.73 2.27-8.1 3.27-10.5-9.53z" fill="#26a87d"/><path data-name="Path 90058" d="M695.73 228.01s-2 10.9-10.47 10.23c0 0 1.69-16.64 10.47-10.23z" fill="#26a87d"/><path data-name="Path 90059" d="M683.9 221.1a28.33 28.33 0 0 1 .62 14c-4.92-4.34-4.3-5.86-.62-14z" fill="#26a87d"/><path data-name="Path 90060" d="M737.32 275.32c-3.84-2.72-8-3.37-10.55-7.28s-5.15-10.21-2.59-15.26 2-11.4.82-16.79 5.46-18.24 9.69-19.71 11.05-4 8.45 7.39 5.18 15.72 6.45 19.26 3.47 23-2.56 28.52-10.25 9.89-10.25 9.89z" fill="#65cc29"/><path data-name="Path 90061" d="M739.19 294.18c.19-14-3.26-43-3.1-44.84s-.94 13.3-.63 27.61.2 16.91.2 16.91c.73.68 1.75.99 3.53.32z" fill="#a33624"/><path data-name="Path 90062" d="M859.35 268.04c-3.05-2.16-6.36-2.67-8.39-5.79s-4.06-8.07-2.06-12.13 1.61-9.07.66-13.35 4.34-14.51 7.7-15.67 8.79-3.14 6.72 5.87 4.12 12.5 5.13 15.32 2.76 18.28-2 22.67-8.15 7.87-8.15 7.87z" fill="#50a01d"/><path data-name="Path 90063" d="M860.84 283.07c.15-11.1-2.6-34.21-2.47-35.66s-.74 10.58-.5 21.95.16 13.45.16 13.45c.58.52 1.39.76 2.81.26z" fill="#a33624"/></g></svg>