<?xml version="1.0" encoding="windows-1252"?>
<!-- Generator: Adobe Illustrator 19.0.0, SVG Export Plug-In . SVG Version: 6.00 Build 0)  -->
<svg version="1.1" id="Capa_1" xmlns="http://www.w3.org/2000/svg" xmlns:xlink="http://www.w3.org/1999/xlink" x="0px" y="0px" viewBox="0 0 472 472" style="enable-background:new 0 0 472 472;" xml:space="preserve">
<g>
	<circle style="fill:#FFD33F;" cx="144" cy="251.83" r="88"/>
	<path style="fill:#FFD33F;" d="M144,139.831c-4.418,0-8-3.582-8-8v-16c0-4.418,3.582-8,8-8s8,3.582,8,8v16   C152,136.249,148.418,139.831,144,139.831z"/>
	<path style="fill:#FFD33F;" d="M59.152,174.983c-2.122,0-4.156-0.844-5.656-2.344l-11.32-11.32   c-3.178-3.069-3.266-8.134-0.197-11.312s8.134-3.266,11.312-0.197c0.067,0.064,0.132,0.13,0.197,0.197l11.312,11.32   c3.124,3.125,3.123,8.19-0.002,11.314c-1.5,1.499-3.534,2.342-5.654,2.342L59.152,174.983z"/>
	<path style="fill:#FFD33F;" d="M24,259.831H8c-4.418,0-8-3.582-8-8c0-4.418,3.582-8,8-8h16c4.418,0,8,3.582,8,8   C32,256.249,28.418,259.831,24,259.831z"/>
	<path style="fill:#FFD33F;" d="M47.832,355.999c-4.418-0.001-7.999-3.583-7.998-8.002c0-2.121,0.843-4.154,2.342-5.654   l11.32-11.312c3.223-3.022,8.286-2.86,11.308,0.363c2.887,3.079,2.886,7.872-0.004,10.949l-11.312,11.312   C51.988,355.155,49.954,355.998,47.832,355.999z"/>
	<path style="fill:#FFD33F;" d="M228.848,174.983c-4.418-0.001-7.999-3.583-7.998-8.002c0-2.121,0.843-4.155,2.342-5.654   l11.32-11.32c3.069-3.178,8.134-3.266,11.312-0.196c3.178,3.069,3.266,8.134,0.196,11.312c-0.064,0.067-0.13,0.132-0.196,0.196   l-11.32,11.32C233.004,174.139,230.97,174.982,228.848,174.983L228.848,174.983z"/>
</g>
<path style="fill:#ADF0FF;" d="M424,339.999c-2.682,0.017-5.359,0.26-8,0.728c0-0.248,0.04-0.48,0.04-0.728  c-0.022-44.205-35.874-80.022-80.079-80.001c-7.99,0.004-15.934,1.204-23.569,3.561c-28.881-44.405-88.291-56.989-132.696-28.109  c-24.879,16.182-40.866,42.969-43.296,72.549c-0.136,0-0.264,0-0.4,0c-35.346,0-64,28.654-64,64s28.654,64,64,64h288  c26.51,0,48-21.49,48-48S450.51,339.999,424,339.999L424,339.999z"/>
<path style="fill:#75E6FF;" d="M416,59.999c-3.643,0.036-7.254,0.699-10.672,1.96c-7.722-20.655-30.726-31.14-51.382-23.419  c-15.624,5.841-25.97,20.779-25.946,37.459c0,0.52,0.136,1,0.152,1.52c-2.607-0.981-5.367-1.495-8.152-1.52  c-13.255,0-24,10.745-24,24s10.745,24,24,24h96c17.673,0,32-14.327,32-32S433.673,59.999,416,59.999z"/>
<g>
</g>
<g>
</g>
<g>
</g>
<g>
</g>
<g>
</g>
<g>
</g>
<g>
</g>
<g>
</g>
<g>
</g>
<g>
</g>
<g>
</g>
<g>
</g>
<g>
</g>
<g>
</g>
<g>
</g>
</svg>