<svg xmlns="http://www.w3.org/2000/svg" viewBox="0 0 168.07 113.94"><defs><style>.cls-1{fill:#d83311;}.cls-2{fill:#f6f7fb;}.cls-3{fill:#d7d7d7;}.cls-4{fill:#ffa929;stroke-linejoin:round;}.cls-4,.cls-5{stroke:#ffa929;stroke-width:2.03px;}.cls-5{fill:none;stroke-linecap:round;stroke-miterlimit:10;}.cls-10,.cls-11,.cls-6{fill:#3b4863;}.cls-7{fill:#67b8e3;}.cls-8{fill:#a7d5ef;}.cls-10,.cls-11,.cls-9{isolation:isolate;}.cls-10{font-size:16px;}.cls-10,.cls-11{font-family:Roboto-Regular, Roboto;}.cls-11{font-size:9.33px;}</style></defs><g id="Calque_2" data-name="Calque 2"><g id="Calque_3" data-name="Calque 3"><g id="Groupe_36115" data-name="Groupe 36115"><path id="Tracé_100467-2" data-name="Tracé 100467-2" class="cls-1" d="M89.43,83.08h-69c-.66-.53-1.07-.91-2.24-1.88C10.9,74.88,0,64.57,0,61.24,0,57.59,9.8,48,17.21,41.87c2.15-1.55,2-1.58,3.22-2.37h69c9.11,0,16.5,9.75,16.5,21.79S98.54,83.08,89.43,83.08Z"/><g id="Groupe_34282-2" data-name="Groupe 34282-2"><path id="Tracé_100302-2" data-name="Tracé 100302-2" class="cls-2" d="M85.71,85.12,83,32.77,107.45,1,121,37v51Z"/><path id="Tracé_100303-2" data-name="Tracé 100303-2" class="cls-3" d="M164.61,83.38,167.06,37H121v51Z"/><path id="Tracé_100304-2" data-name="Tracé 100304-2" class="cls-4" d="M107.44,1h40.65l19,36H121Z"/><line id="Ligne_13044-2" data-name="Ligne 13044-2" class="cls-5" x1="81.25" y1="34.76" x2="107.44" y2="1.01"/><path id="Tracé_100305-2" data-name="Tracé 100305-2" class="cls-6" d="M116.07,6.17l8.63,25.09a.65.65,0,0,0,.62.45h32.76a.67.67,0,0,0,.66-.66.73.73,0,0,0-.07-.3l-12.45-25a.65.65,0,0,0-.59-.37L116.7,5.31a.65.65,0,0,0-.67.63.59.59,0,0,0,0,.23Z"/><rect id="Rectangle_34418-2" data-name="Rectangle 34418-2" class="cls-7" x="125.27" y="47.6" width="12.73" height="19.04" rx="0.83"/><rect id="Rectangle_34419-2" data-name="Rectangle 34419-2" class="cls-7" x="149.75" y="47.6" width="12.58" height="19.04" rx="0.83"/><rect id="Rectangle_34420-2" data-name="Rectangle 34420-2" class="cls-8" x="94.67" y="46.83" width="11.39" height="19.04" rx="0.83"/></g><g id="kWhEP_m2.an-2" data-name="kWhEP m2.an-2" class="cls-9"><text class="cls-10" transform="translate(13.47 106.08)">kWh</text><text class="cls-11" transform="translate(44.59 111.41)">EP</text><text class="cls-10" transform="translate(55.78 106.08)">/m</text><text class="cls-11" transform="translate(76.4 100.74)">2</text><text class="cls-10" transform="translate(81.64 106.08)">.an</text></g></g></g></g></svg>