<svg xmlns="http://www.w3.org/2000/svg" viewBox="0 0 86.16 267"><defs><style>.cls-1{fill:#71b051;}.cls-2{isolation:isolate;}.cls-3{fill:#fff;}.cls-4{fill:#8dc074;}.cls-5{fill:#aad097;}.cls-6{fill:#ffcb7f;}.cls-7{fill:#ffa929;}.cls-8{fill:#eb6e00;}.cls-9{fill:#d83311;}</style></defs><g id="Calque_2" data-name="Calque 2"><g id="Calque_3" data-name="Calque 3"><g id="Calque_3-2" data-name="Calque 3"><g id="Groupe_34275" data-name="Groupe 34275"><path id="Rectangle_1092-8" data-name="Rectangle 1092-8" class="cls-1" d="M0,0H24.66a16.5,16.5,0,0,1,16.5,16.5h0A16.5,16.5,0,0,1,24.66,33H0Z"/><g id="A"><g id="A-2" class="cls-2"><g class="cls-2"><path class="cls-3" d="M27,20.65H21.63L20.42,24H18.68l4.89-12.8H25L29.94,24H28.21Zm-4.85-1.38h4.35l-2.18-6Z"/></g></g></g></g><g id="Groupe_34275-2" data-name="Groupe 34275-2"><path id="Rectangle_1092-8-2" data-name="Rectangle 1092-8-2" class="cls-4" d="M0,39H35.08a16.5,16.5,0,0,1,16.5,16.5h0A16.5,16.5,0,0,1,35.08,72H0Z"/><g id="A-3"><g id="B" class="cls-2"><g class="cls-2"><path class="cls-3" d="M30.34,63V50.2h4.19a4.87,4.87,0,0,1,3.13.86,3.12,3.12,0,0,1,1.05,2.55,2.6,2.6,0,0,1-.51,1.59,3.27,3.27,0,0,1-1.39,1.07,3,3,0,0,1,1.64,1.1,3.18,3.18,0,0,1,.6,1.94A3.44,3.44,0,0,1,37.94,62a4.67,4.67,0,0,1-3.16,1ZM32,55.66h2.55a2.66,2.66,0,0,0,1.77-.55A1.88,1.88,0,0,0,37,53.6a1.84,1.84,0,0,0-.61-1.54,3,3,0,0,0-1.87-.48H32ZM32,57v4.61h2.79A2.69,2.69,0,0,0,36.68,61a2.16,2.16,0,0,0,.68-1.68c0-1.54-.84-2.32-2.52-2.32Z"/></g></g></g></g><g id="Groupe_34275-3" data-name="Groupe 34275-3"><path id="Rectangle_1092-8-3" data-name="Rectangle 1092-8-3" class="cls-5" d="M0,78H41.08a16.5,16.5,0,0,1,16.5,16.5h0A16.5,16.5,0,0,1,41.08,111H0Z"/><g id="A-4"><g id="C" class="cls-2"><g class="cls-2"><path class="cls-3" d="M45.76,97.94a4.71,4.71,0,0,1-1.5,3.13,4.9,4.9,0,0,1-3.36,1.11,4.52,4.52,0,0,1-3.63-1.63A6.53,6.53,0,0,1,35.9,96.2V95a7.36,7.36,0,0,1,.64-3.14,4.85,4.85,0,0,1,1.81-2.08,5,5,0,0,1,2.7-.72,4.62,4.62,0,0,1,3.27,1.14,4.76,4.76,0,0,1,1.44,3.15h-1.7a3.7,3.7,0,0,0-1-2.23,2.94,2.94,0,0,0-2.06-.68,3,3,0,0,0-2.53,1.19A5.53,5.53,0,0,0,37.6,95v1.24a5.62,5.62,0,0,0,.87,3.31,2.79,2.79,0,0,0,2.43,1.24,3.27,3.27,0,0,0,2.16-.64,3.55,3.55,0,0,0,1-2.22Z"/></g></g></g></g><g id="Groupe_34275-4" data-name="Groupe 34275-4"><path id="Rectangle_1092-8-4" data-name="Rectangle 1092-8-4" class="cls-6" d="M0,117H49.08a16.5,16.5,0,0,1,16.5,16.5h0A16.5,16.5,0,0,1,49.08,150H0Z"/><g id="A-5"><g id="D" class="cls-2"><g class="cls-2"><path class="cls-3" d="M44.34,141V128.2H48a5.85,5.85,0,0,1,2.95.74,5,5,0,0,1,2,2.1,6.84,6.84,0,0,1,.71,3.13V135a6.79,6.79,0,0,1-.7,3.17,4.87,4.87,0,0,1-2,2.09,6.12,6.12,0,0,1-3,.75ZM46,129.58v10h1.78a3.84,3.84,0,0,0,3-1.21A5,5,0,0,0,51.93,135v-.75a5.07,5.07,0,0,0-1-3.39,3.62,3.62,0,0,0-2.9-1.23Z"/></g></g></g></g><g id="Groupe_34275-5" data-name="Groupe 34275-5"><path id="Rectangle_1092-8-5" data-name="Rectangle 1092-8-5" class="cls-7" d="M0,156H55.66a16.5,16.5,0,0,1,16.5,16.5h0A16.5,16.5,0,0,1,55.66,189H0Z"/><g id="A-6"><g id="E" class="cls-2"><g class="cls-2"><path class="cls-3" d="M58.15,174.08H52.61v4.54h6.44V180H50.92V167.2h8v1.38H52.61v4.13h5.54Z"/></g></g></g></g><g id="Groupe_34275-6" data-name="Groupe 34275-6"><path id="Rectangle_1092-8-6" data-name="Rectangle 1092-8-6" class="cls-8" d="M0,195H61.66a16.5,16.5,0,0,1,16.5,16.5h0A16.5,16.5,0,0,1,61.66,228H0Z"/><g id="A-7"><g id="F" class="cls-2"><g class="cls-2"><path class="cls-3" d="M64,213.35H58.61V219H56.92V206.2h7.93v1.38H58.61V212H64Z"/></g></g></g></g><g id="Groupe_34275-7" data-name="Groupe 34275-7"><path id="Rectangle_1092-8-7" data-name="Rectangle 1092-8-7" class="cls-9" d="M0,234H69.66a16.5,16.5,0,0,1,16.5,16.5h0A16.5,16.5,0,0,1,69.66,267H0Z"/><g id="A-8"><g id="G" class="cls-2"><g class="cls-2"><path class="cls-3" d="M74.37,256.32a3.83,3.83,0,0,1-1.82,1.39,7.25,7.25,0,0,1-2.71.47,5.22,5.22,0,0,1-2.77-.74,4.84,4.84,0,0,1-1.88-2.09,7.17,7.17,0,0,1-.68-3.13V251.1a6.71,6.71,0,0,1,1.35-4.48A4.7,4.7,0,0,1,69.65,245a4.88,4.88,0,0,1,3.23,1A4.46,4.46,0,0,1,74.37,249H72.68a2.78,2.78,0,0,0-3-2.55,3,3,0,0,0-2.57,1.19,5.77,5.77,0,0,0-.89,3.45v1a5.39,5.39,0,0,0,1,3.42,3.18,3.18,0,0,0,2.66,1.28,5.88,5.88,0,0,0,1.66-.21,2.57,2.57,0,0,0,1.18-.71V253h-3v-1.38h4.64Z"/></g></g></g></g></g></g></g></svg>