<svg xmlns="http://www.w3.org/2000/svg" viewBox="0 0 349.15 261"><defs><style>.cls-1{fill:#71b051;}.cls-2,.cls-3{isolation:isolate;}.cls-3{font-size:18px;fill:#fff;font-family:Roboto-Regular, Roboto;}.cls-4{fill:#8dc074;}.cls-5{fill:#aad097;}.cls-6{fill:#ffcb7f;}.cls-7{fill:#ffa929;}.cls-8{fill:#eb6e00;}.cls-9{fill:#d83311;}</style></defs><g id="Calque_2" data-name="Calque 2"><g id="Calque_3" data-name="Calque 3"><g id="Groupe_34275" data-name="Groupe 34275"><path id="Rectangle_1092-8" data-name="Rectangle 1092-8" class="cls-1" d="M0,0H223a16.5,16.5,0,0,1,16.5,16.5h0A16.5,16.5,0,0,1,223,33H0V0Z"/><g id="_50" data-name=" 50" class="cls-2"><text class="cls-3" transform="translate(11.04 24)">&lt; 50</text></g><g id="A" class="cls-2"><text class="cls-3" transform="translate(216.78 24)">A</text></g></g><g id="Groupe_34276" data-name="Groupe 34276"><path id="Rectangle_1092-9" data-name="Rectangle 1092-9" class="cls-4" d="M0,38H236.68a16.5,16.5,0,0,1,16.5,16.5h0A16.5,16.5,0,0,1,236.68,71H0V38Z"/><g id="_51_à_90" data-name=" 51 à 90" class="cls-2"><text class="cls-3" transform="translate(11.04 62)">51 à 90</text></g><g id="B" class="cls-2"><text class="cls-3" transform="translate(230.97 62)">B</text></g></g><g id="Groupe_34277" data-name="Groupe 34277"><path id="Rectangle_1092-10" data-name="Rectangle 1092-10" class="cls-5" d="M0,76H258.68a16.5,16.5,0,0,1,16.5,16.5h0a16.5,16.5,0,0,1-16.5,16.5H0V76Z"/><g id="_91_à_150" data-name=" 91 à 150" class="cls-2"><text class="cls-3" transform="translate(11.04 100)">91 à 150</text></g><g id="C" class="cls-2"><text class="cls-3" transform="translate(252.46 100)">C</text></g></g><g id="Groupe_34278" data-name="Groupe 34278"><path id="Rectangle_1092-11" data-name="Rectangle 1092-11" class="cls-6" d="M0,114H272.33a16.5,16.5,0,0,1,16.5,16.5h0a16.5,16.5,0,0,1-16.5,16.5H0V114Z"/><g id="_151_à_230" data-name=" 151 à 230" class="cls-2"><text class="cls-3" transform="translate(11.04 138)">151 à 230</text></g><g id="D" class="cls-2"><text class="cls-3" transform="translate(266.03 138)">D</text></g></g><g id="Groupe_34279" data-name="Groupe 34279"><path id="Rectangle_1092-12" data-name="Rectangle 1092-12" class="cls-7" d="M0,152H294.33a16.5,16.5,0,0,1,16.5,16.5h0a16.5,16.5,0,0,1-16.5,16.5H0V152Z"/><g id="_231_à_330" data-name=" 231 à 330" class="cls-2"><text class="cls-3" transform="translate(11.04 176)">231 à 330</text></g><g id="E" class="cls-2"><text class="cls-3" transform="translate(289.61 176)">E</text></g></g><g id="Groupe_34280" data-name="Groupe 34280"><path id="Rectangle_1092-13" data-name="Rectangle 1092-13" class="cls-8" d="M0,190H310.65a16.5,16.5,0,0,1,16.5,16.5h0a16.5,16.5,0,0,1-16.5,16.5H0V190Z"/><g id="_331_à_450" data-name=" 331 à 450" class="cls-2"><text class="cls-3" transform="translate(11.04 214)">331 à 450</text></g><g id="F" class="cls-2"><text class="cls-3" transform="translate(306.2 214)">F</text></g></g><g id="Groupe_34281" data-name="Groupe 34281"><path id="Rectangle_1092-14" data-name="Rectangle 1092-14" class="cls-9" d="M0,228H332.65a16.5,16.5,0,0,1,16.5,16.5h0a16.5,16.5,0,0,1-16.5,16.5H0V228Z"/><g id="_450" data-name=" 450" class="cls-2"><text class="cls-3" transform="translate(11.04 252)">&gt; 450</text></g><g id="G" class="cls-2"><text class="cls-3" transform="translate(325.89 252)">G</text></g></g></g></g></svg>