<svg xmlns="http://www.w3.org/2000/svg" viewBox="0 0 168.21 115.2"><defs><style>.cls-1{fill:#e6dff3;}.cls-2{fill:#f6f7fb;}.cls-3{fill:#d7d7d7;}.cls-4{fill:#ffa929;stroke-linejoin:round;}.cls-4,.cls-5{stroke:#ffa929;stroke-width:2.2px;}.cls-5{fill:none;stroke-linecap:round;stroke-miterlimit:10;}.cls-10,.cls-11,.cls-6{fill:#3b4863;}.cls-7{fill:#67b8e3;}.cls-8{fill:#a7d5ef;}.cls-10,.cls-11,.cls-9{isolation:isolate;}.cls-10{font-size:16px;}.cls-10,.cls-11{font-family:Roboto-Regular, Roboto;}.cls-11{font-size:9.33px;}</style></defs><g id="Calque_2" data-name="Calque 2"><g id="Calque_3" data-name="Calque 3"><g id="Groupe_36116" data-name="Groupe 36116"><path id="Tracé_100468-2" data-name="Tracé 100468-2" class="cls-1" d="M87.08,83.16H19.89c-.64-.53-1-.91-2.18-1.88C10.61,74.92,0,64.55,0,61.21c0-3.68,9.54-13.34,16.76-19.48,2.09-1.56,2-1.6,3.13-2.39H87.08c8.88,0,16.07,9.81,16.07,21.91S96,83.16,87.08,83.16Z"/><g id="Groupe_34282-2" data-name="Groupe 34282-2"><path id="Tracé_100302-2" data-name="Tracé 100302-2" class="cls-2" d="M84.66,86.35,81.88,33.29,106.69,1.1l13.73,36.51V89.34Z"/><path id="Tracé_100303-2" data-name="Tracé 100303-2" class="cls-3" d="M164.63,84.58l2.48-47H120.42V89.34Z"/><path id="Tracé_100304-2" data-name="Tracé 100304-2" class="cls-4" d="M106.69,1.1h41.19l19.23,36.51H120.42Z"/><line id="Ligne_13044-2" data-name="Ligne 13044-2" class="cls-5" x1="80.14" y1="35.3" x2="106.69" y2="1.1"/><path id="Tracé_100305-2" data-name="Tracé 100305-2" class="cls-6" d="M115.43,6.33l8.74,25.43a.67.67,0,0,0,.63.45H158a.66.66,0,0,0,.66-.67.6.6,0,0,0-.07-.3L146,5.88a.65.65,0,0,0-.6-.37l-29.32-.06a.68.68,0,0,0-.64.88Z"/><rect id="Rectangle_34418-2" data-name="Rectangle 34418-2" class="cls-7" x="124.75" y="48.31" width="12.91" height="19.3" rx="0.9"/><rect id="Rectangle_34419-2" data-name="Rectangle 34419-2" class="cls-7" x="149.57" y="48.31" width="12.75" height="19.3" rx="0.9"/><rect id="Rectangle_34420-2" data-name="Rectangle 34420-2" class="cls-8" x="93.74" y="47.54" width="11.55" height="19.3" rx="0.9"/></g><g id="kWhgéqCO2_m2.an-2" data-name="kWhgéqCO2 m2.an-2" class="cls-9"><text class="cls-10" transform="translate(12.13 107.34)">kWh</text><text class="cls-11" transform="translate(43.25 112.67)">géq</text><text class="cls-10" transform="translate(58.73 107.34)">CO2/m</text><text class="cls-11" transform="translate(109.75 102.01)">2</text><text class="cls-10" transform="translate(114.99 107.34)">.an</text></g></g></g></g></svg>