<svg xmlns="http://www.w3.org/2000/svg" viewBox="0 0 86.16 267"><defs><style>.cls-1{fill:#eee8fb;}.cls-2,.cls-3,.cls-7{isolation:isolate;}.cls-3,.cls-7{font-size:18px;font-family:Roboto-Regular, Roboto;}.cls-3{fill:#3b4863;}.cls-4{fill:#e6dff3;}.cls-5{fill:#d3c8e7;}.cls-6{fill:#b9a7d9;}.cls-7{fill:#fff;}.cls-8{fill:#967cc5;}.cls-9{fill:#7350b2;}.cls-10{fill:#50249f;}</style></defs><g id="Calque_2" data-name="Calque 2"><g id="Calque_3" data-name="Calque 3"><g id="Calque_3-2" data-name="Calque 3-2"><g id="Groupe_34275-8" data-name="Groupe 34275-8"><path id="Rectangle_1092-8-8" data-name="Rectangle 1092-8-8" class="cls-1" d="M0,0H24.66a16.5,16.5,0,0,1,16.5,16.5h0A16.5,16.5,0,0,1,24.66,33H0Z"/><g id="A-9"><g id="A-10" class="cls-2"><text class="cls-3" transform="translate(18.44 24)">A</text></g></g></g><g id="Groupe_34275-9" data-name="Groupe 34275-9"><path id="Rectangle_1092-8-9" data-name="Rectangle 1092-8-9" class="cls-4" d="M0,39H35.08a16.5,16.5,0,0,1,16.5,16.5h0A16.5,16.5,0,0,1,35.08,72H0Z"/><g id="A-11"><g id="B-2" class="cls-2"><text class="cls-3" transform="translate(28.86 63)">B</text></g></g></g><g id="Groupe_34275-10" data-name="Groupe 34275-10"><path id="Rectangle_1092-8-10" data-name="Rectangle 1092-8-10" class="cls-5" d="M0,78H41.08a16.5,16.5,0,0,1,16.5,16.5h0A16.5,16.5,0,0,1,41.08,111H0Z"/><g id="A-12"><g id="C-2" class="cls-2"><text class="cls-3" transform="translate(34.86 102)">C</text></g></g></g><g id="Groupe_34275-11" data-name="Groupe 34275-11"><path id="Rectangle_1092-8-11" data-name="Rectangle 1092-8-11" class="cls-6" d="M0,117H49.08a16.5,16.5,0,0,1,16.5,16.5h0A16.5,16.5,0,0,1,49.08,150H0Z"/><g id="A-13"><g id="D-2" class="cls-2"><text class="cls-7" transform="translate(42.86 141)">D</text></g></g></g><g id="Groupe_34275-12" data-name="Groupe 34275-12"><path id="Rectangle_1092-8-12" data-name="Rectangle 1092-8-12" class="cls-8" d="M0,156H55.66a16.5,16.5,0,0,1,16.5,16.5h0A16.5,16.5,0,0,1,55.66,189H0Z"/><g id="A-14"><g id="E-2" class="cls-2"><text class="cls-7" transform="translate(49.44 180)">E</text></g></g></g><g id="Groupe_34275-13" data-name="Groupe 34275-13"><path id="Rectangle_1092-8-13" data-name="Rectangle 1092-8-13" class="cls-9" d="M0,195H61.66a16.5,16.5,0,0,1,16.5,16.5h0A16.5,16.5,0,0,1,61.66,228H0Z"/><g id="A-15"><g id="F-2" class="cls-2"><text class="cls-7" transform="translate(55.44 219)">F</text></g></g></g><g id="Groupe_34275-14" data-name="Groupe 34275-14"><path id="Rectangle_1092-8-14" data-name="Rectangle 1092-8-14" class="cls-10" d="M0,234H69.66a16.5,16.5,0,0,1,16.5,16.5h0A16.5,16.5,0,0,1,69.66,267H0Z"/><g id="A-16"><g id="G-2" class="cls-2"><text class="cls-7" transform="translate(63.44 258)">G</text></g></g></g></g></g></g></svg>