<svg xmlns="http://www.w3.org/2000/svg" viewBox="0 0 348.91 261"><defs><style>.cls-1{fill:#eee8fb;}.cls-2,.cls-3,.cls-7{isolation:isolate;}.cls-3,.cls-7{font-size:18px;font-family:Roboto-Regular, Roboto;}.cls-3{fill:#3b4863;}.cls-4{fill:#e6dff3;}.cls-5{fill:#d3c8e7;}.cls-6{fill:#b9a7d9;}.cls-7{fill:#fff;}.cls-8{fill:#967cc5;}.cls-9{fill:#7350b2;}.cls-10{fill:#50249f;}</style></defs><g id="Calque_2" data-name="Calque 2"><g id="Calque_3" data-name="Calque 3"><g id="Groupe_34275" data-name="Groupe 34275"><path id="Rectangle_1092-8" data-name="Rectangle 1092-8" class="cls-1" d="M0,0H221a16.5,16.5,0,0,1,16.5,16.5h0A16.5,16.5,0,0,1,221,33H0V0Z"/><g id="_5" data-name=" 5" class="cls-2"><text class="cls-3" transform="translate(11 24)">&lt; 5</text></g><g id="A" class="cls-2"><text class="cls-3" transform="translate(214.78 24)">A</text></g></g><g id="Groupe_34276" data-name="Groupe 34276"><path id="Rectangle_1092-9" data-name="Rectangle 1092-9" class="cls-4" d="M0,38H237.32a16.5,16.5,0,0,1,16.5,16.5h0A16.5,16.5,0,0,1,237.32,71H0V38Z"/><g id="_6_à_10" data-name=" 6 à 10" class="cls-2"><text class="cls-3" transform="translate(11 62)">6 à 10</text></g><g id="B" class="cls-2"><text class="cls-3" transform="translate(231.62 62)">B</text></g></g><g id="Groupe_34277" data-name="Groupe 34277"><path id="Rectangle_1092-10" data-name="Rectangle 1092-10" class="cls-5" d="M0,76H259.32a16.5,16.5,0,0,1,16.5,16.5h0a16.5,16.5,0,0,1-16.5,16.5H0V76Z"/><g id="_11_à_20" data-name=" 11 à 20" class="cls-2"><text class="cls-3" transform="translate(11 100)">11 à 20</text></g><g id="C" class="cls-2"><text class="cls-3" transform="translate(253.11 100)">C</text></g></g><g id="Groupe_34278" data-name="Groupe 34278"><path id="Rectangle_1092-11" data-name="Rectangle 1092-11" class="cls-6" d="M0,114H271.66a16.5,16.5,0,0,1,16.5,16.5h0a16.5,16.5,0,0,1-16.5,16.5H0V114Z"/><g id="_21_à_35" data-name=" 21 à 35" class="cls-2"><text class="cls-7" transform="translate(11 138)">21 à 35</text></g><g id="D" class="cls-2"><text class="cls-7" transform="translate(265.36 138)">D</text></g></g><g id="Groupe_34279" data-name="Groupe 34279"><path id="Rectangle_1092-12" data-name="Rectangle 1092-12" class="cls-8" d="M0,152H293.66a16.5,16.5,0,0,1,16.5,16.5h0a16.5,16.5,0,0,1-16.5,16.5H0V152Z"/><g id="_36_à_55" data-name=" 36 à 55" class="cls-2"><text class="cls-7" transform="translate(11 176)">36 à 55</text></g><g id="E" class="cls-2"><text class="cls-7" transform="translate(288.93 176)">E</text></g></g><g id="Groupe_34280" data-name="Groupe 34280"><path id="Rectangle_1092-13" data-name="Rectangle 1092-13" class="cls-9" d="M0,190H310.41a16.5,16.5,0,0,1,16.5,16.5h0a16.5,16.5,0,0,1-16.5,16.5H0V190Z"/><g id="_56_à_80" data-name=" 56 à 80" class="cls-2"><text class="cls-7" transform="translate(11 214)">56 à 80</text></g><g id="F" class="cls-2"><text class="cls-7" transform="translate(305.96 214)">F</text></g></g><g id="Groupe_34281" data-name="Groupe 34281"><path id="Rectangle_1092-14" data-name="Rectangle 1092-14" class="cls-10" d="M0,228H332.41a16.5,16.5,0,0,1,16.5,16.5h0a16.5,16.5,0,0,1-16.5,16.5H0V228Z"/><g id="_80" data-name=" 80" class="cls-2"><text class="cls-7" transform="translate(11 252)">&gt; 80</text></g><g id="G" class="cls-2"><text class="cls-7" transform="translate(325.65 252)">G</text></g></g></g></g></svg>