<svg xmlns="http://www.w3.org/2000/svg" width="562.536" height="231.56" viewBox="0 0 562.536 231.56"><g data-name="Group 26538"><g data-name="Group 26534"><g data-name="Group 26528"><path data-name="Path 91182" d="M110.8 25.7c-17.7 78-9.8 145.7-7.6 162.1" fill="none" stroke="#50249f" stroke-miterlimit="10"/><path data-name="Path 91183" d="M136.8 122c-13.1.1-28.2 3.4-36.3 37.9 24.2-6.7 38-14.1 36.3-37.9z" fill="#50249f"/><path data-name="Path 91184" d="M65.5 111s-3 43.3 34.7 43.7c-3.6-34.9-13.6-39.3-34.7-43.7z" fill="#50249f"/><path data-name="Path 91185" d="M131.7 80.8s-29.7 1.5-31.9 34.9c14.5-1.9 33.4-8.5 31.9-34.9z" fill="#50249f"/><path data-name="Path 91186" d="M76.9 62.8s-4.1 35.4 22.7 41.8c-2.3-33.5-8-33.7-22.7-41.8z" fill="#50249f"/><path data-name="Path 91187" d="M130 45.7s-24.6-1.6-27.5 28.6c17.2 1.4 21.7-3.6 27.5-28.6z" fill="#50249f"/><path data-name="Path 91188" d="M77.8 33.2s2.7 28.2 25.5 33.8c-2.2-17.4-4-34-25.5-33.8z" fill="#50249f"/><path data-name="Path 91189" d="M129.6 19.1a31.55 31.55 0 0 0-21.7 20.2c5.8 4.8 17.1 6.7 21.7-20.2z" fill="#50249f"/><path data-name="Path 91190" d="M85.3 14.8s4.6 22.7 22.2 21.1c0 0-4.1-34.7-22.2-21.1z" fill="#50249f"/><path data-name="Path 91191" d="M109.8 0s-4.7 14.4-.9 29.4c10.2-9.3 8.8-12.5.9-29.4z" fill="#50249f"/></g><g data-name="Group 26529"><path data-name="Path 91192" d="M61.6 38.6c16.2 71.7 9 133.8 7 148.9" fill="none" stroke="#138e68" stroke-miterlimit="10"/><path data-name="Path 91193" d="M37.8 127.1c12.1.1 25.9 3.1 33.3 34.8-22.2-6.2-34.9-13-33.3-34.8z" fill="#138e68"/><path data-name="Path 91194" d="M103.2 117s2.8 39.8-31.9 40.1c3.4-32 12.5-36.1 31.9-40.1z" fill="#138e68"/><path data-name="Path 91195" d="M42.5 89.2s27.3 1.4 29.3 32.1c-13.4-1.8-30.7-7.8-29.3-32.1z" fill="#138e68"/><path data-name="Path 91196" d="M92.8 72.6s3.7 32.5-20.9 38.4c2.1-30.7 7.4-30.9 20.9-38.4z" fill="#138e68"/><path data-name="Path 91197" d="M44 57s22.6-1.5 25.2 26.3C53.4 84.5 49.3 79.9 44 57z" fill="#138e68"/><path data-name="Path 91198" d="M92 45.5s-2.5 25.9-23.4 31c2-15.9 3.6-31.2 23.4-31z" fill="#138e68"/><path data-name="Path 91199" d="M44.4 32.6a28.938 28.938 0 0 1 19.9 18.6c-5.3 4.3-15.7 6-19.9-18.6z" fill="#138e68"/><path data-name="Path 91200" d="M85.1 28.6s-4.2 20.9-20.4 19.3c0 .1 3.7-31.8 20.4-19.3z" fill="#138e68"/><path data-name="Path 91201" d="M62.6 15s4.3 13.2.8 27c-9.4-8.6-8.1-11.5-.8-27z" fill="#138e68"/></g><g data-name="Group 26530"><path data-name="Path 91202" d="M40.1 83.2A300.128 300.128 0 0 1 55.8 183" fill="none" stroke="#58b748" stroke-miterlimit="10" stroke-width="1.168"/><path data-name="Path 91203" d="M30.5 144.7c8.1-.8 17.7.2 25 21-15.4-2.6-24.5-6.2-25-21z" fill="#58b748"/><path data-name="Path 91204" d="M73.9 133s4.8 26.6-18.5 29.4c-.2-21.8 5.7-25.2 18.5-29.4z" fill="#58b748"/><path data-name="Path 91205" d="M30.9 118.8s18.5-1.1 22.1 19.5c-9.2-.2-21.2-3-22.1-19.5z" fill="#58b748"/><path data-name="Path 91206" d="M63.6 103.9s4.9 21.6-11.2 27.4c-.9-20.8 2.6-21.3 11.2-27.4z" fill="#58b748"/><path data-name="Path 91207" d="M29.5 97s15.1-2.7 18.9 15.9c-10.5 1.9-13.6-.9-18.9-15.9z" fill="#58b748"/><path data-name="Path 91208" d="M61.1 85.7s.2 17.6-13.5 22.6c.1-10.9.1-21.3 13.5-22.6z" fill="#58b748"/><path data-name="Path 91209" d="M28 80.5a19.724 19.724 0 0 1 14.8 11.1c-3.3 3.3-10.1 5.2-14.8-11.1z" fill="#58b748"/><path data-name="Path 91210" d="M55.2 74.8s-1.3 14.4-12.3 14.5c-.1 0 .1-21.7 12.3-14.5z" fill="#58b748"/><path data-name="Path 91211" d="M39 67.3a36.16 36.16 0 0 1 2.5 18.1c-6.9-5.1-6.3-7.1-2.5-18.1z" fill="#58b748"/></g><g data-name="Group 26531"><path data-name="Path 91212" d="M12.1 93.6a300.128 300.128 0 0 1 15.7 99.8" fill="none" stroke="#9ec41a" stroke-miterlimit="10"/><path data-name="Path 91213" d="M2.5 155.1c8.1-.8 17.7.2 25 21-15.4-2.6-24.5-6.2-25-21z" fill="#9ec41a"/><path data-name="Path 91214" d="M45.9 143.4s4.8 26.6-18.5 29.4c-.2-21.8 5.7-25.2 18.5-29.4z" fill="#9ec41a"/><path data-name="Path 91215" d="M2.9 129.2s18.5-1.1 22.1 19.5c-9.2-.2-21.2-3-22.1-19.5z" fill="#9ec41a"/><path data-name="Path 91216" d="M35.6 114.3s4.9 21.6-11.2 27.4c-.9-20.8 2.6-21.3 11.2-27.4z" fill="#9ec41a"/><path data-name="Path 91217" d="M1.5 107.4s15.1-2.7 18.9 15.9c-10.5 1.9-13.6-.9-18.9-15.9z" fill="#9ec41a"/><path data-name="Path 91218" d="M33.1 96.1s.2 17.6-13.5 22.6c.1-10.9.1-21.3 13.5-22.6z" fill="#9ec41a"/><path data-name="Path 91219" d="M0 90.9A19.724 19.724 0 0 1 14.8 102c-3.3 3.3-10.1 5.2-14.8-11.1z" fill="#9ec41a"/><path data-name="Path 91220" d="M27.2 85.2s-1.3 14.4-12.3 14.5c-.1 0 .1-21.7 12.3-14.5z" fill="#9ec41a"/><path data-name="Path 91221" d="M11 77.7a36.16 36.16 0 0 1 2.5 18.1c-6.9-5.1-6.3-7.1-2.5-18.1z" fill="#9ec41a"/></g><g data-name="Group 26532"><path data-name="Path 91222" d="M514 63.3c-19.8 59.5-18.8 112.9-18.4 125.8" fill="none" stroke="#138e68" stroke-miterlimit="10" stroke-width="1.566"/><path data-name="Path 91223" d="M526.8 140.5c-10.2-.9-22.2.5-31.2 26.8 19.4-3.5 30.7-8.2 31.2-26.8z" fill="#138e68"/><path data-name="Path 91224" d="M472.1 126.4s-5.7 33.6 23.7 36.8c-.1-27.5-7.6-31.7-23.7-36.8z" fill="#138e68"/><path data-name="Path 91225" d="M526 108s-23.3-1.1-27.6 24.8c11.6-.4 26.7-4.1 27.6-24.8z" fill="#138e68"/><path data-name="Path 91226" d="M484.7 89.6s-5.9 27.3 14.5 34.4c.7-26.3-3.7-26.9-14.5-34.4z" fill="#138e68"/><path data-name="Path 91227" d="M527.4 80.4s-19-3.1-23.6 20.2c13.3 2.4 17.2-1.1 23.6-20.2z" fill="#138e68"/><path data-name="Path 91228" d="M487.6 66.7s-.1 22.2 17.3 28.3c-.4-13.7-.5-26.9-17.3-28.3z" fill="#138e68"/><path data-name="Path 91229" d="M529.9 60a25.94 25.94 0 0 0-19.5 15c4.4 4.4 13.5 6.8 19.5-15z" fill="#138e68"/><path data-name="Path 91230" d="M494.9 52.9S496.7 71 510.6 71c0 0-.5-27.4-15.7-18.1z" fill="#138e68"/><path data-name="Path 91231" d="M515.1 42.6s-5 11.5-3.1 24.2c9.2-6.9 8.3-9.6 3.1-24.2z" fill="#138e68"/></g><g data-name="Group 26533"><path data-name="Path 91232" d="M538.7 64.2c-16.1 71-8.9 132.7-7 147.6" fill="none" stroke="#9ec41a" stroke-miterlimit="10" stroke-width="1.901"/><path data-name="Path 91233" d="M562.4 152c-12 .1-25.6 3.1-33 34.5 22-6.2 34.6-12.9 33-34.5z" fill="#9ec41a"/><path data-name="Path 91234" d="M497.5 142s-2.7 39.4 31.6 39.8c-3.3-31.8-12.4-35.9-31.6-39.8z" fill="#9ec41a"/><path data-name="Path 91235" d="M557.7 114.5s-27 1.4-29.1 31.8c13.4-1.8 30.5-7.8 29.1-31.8z" fill="#9ec41a"/><path data-name="Path 91236" d="M507.9 98s-3.7 32.2 20.7 38.1c-2.2-30.5-7.4-30.7-20.7-38.1z" fill="#9ec41a"/><path data-name="Path 91237" d="M556.2 82.5s-22.4-1.5-25 26.1c15.7 1.2 19.8-3.3 25-26.1z" fill="#9ec41a"/><path data-name="Path 91238" d="M508.6 71.1s2.4 25.7 23.2 30.7c-1.9-15.7-3.5-30.9-23.2-30.7z" fill="#9ec41a"/><path data-name="Path 91239" d="M555.8 58.3a28.547 28.547 0 0 0-19.7 18.4c5.3 4.3 15.5 6 19.7-18.4z" fill="#9ec41a"/><path data-name="Path 91240" d="M515.5 54.4s4.2 20.7 20.2 19.2c0-.1-3.7-31.7-20.2-19.2z" fill="#9ec41a"/><path data-name="Path 91241" d="M537.8 40.9s-4.2 13.1-.8 26.7c9.3-8.4 8-11.3.8-26.7z" fill="#9ec41a"/></g></g><g data-name="Group 26535"><path data-name="Path 91242" d="M87.5 85c-7.9 62.5 3.4 115 6.3 127.7" fill="none" stroke="#58b748" stroke-miterlimit="10" stroke-width="1.478"/><path data-name="Path 91243" d="M115.2 158.6c-10.3 1.1-21.8 4.8-25.5 32.5 18.4-7.1 28.7-14 25.5-32.5z" fill="#58b748"/><path data-name="Path 91244" d="M58.5 155.4s.9 34.2 30.5 31.6c-5.4-27-13.6-29.8-30.5-31.6z" fill="#58b748"/><path data-name="Path 91245" d="M108.1 126.7s-23.1 3.5-22.4 29.8c11.3-2.6 25.6-9.2 22.4-29.8z" fill="#58b748"/><path data-name="Path 91246" d="M63.8 116.7s-.5 28.1 21 31.1c-4.4-26.1-8.9-25.8-21-31.1z" fill="#58b748"/><path data-name="Path 91247" d="M104.2 99.3s-19.4.6-19.4 24.5c13.6-.2 16.7-4.5 19.4-24.5z" fill="#58b748"/><path data-name="Path 91248" d="M62.2 93.5s4.2 21.9 22.6 24.5c-3.1-13.4-5.7-26.4-22.6-24.5z" fill="#58b748"/><path data-name="Path 91249" d="M101.8 78.5A24.681 24.681 0 0 0 86.4 96c4.8 3.3 13.8 3.9 15.4-17.5z" fill="#58b748"/><path data-name="Path 91250" d="M66.7 78.5S72 96 85.7 93.3c0 0-5.8-26.9-19-14.8z" fill="#58b748"/><path data-name="Path 91251" d="M84.8 65s-2.6 11.6 1.6 23.1c7.2-8.1 5.9-10.4-1.6-23.1z" fill="#58b748"/></g><g data-name="Group 26536"><path data-name="Path 91252" d="M70.5 128.1c-9.6 48.5-3.5 90.2-2 100.2" fill="none" stroke="#9ec41a" stroke-miterlimit="10" stroke-width=".685"/><path data-name="Path 91253" d="M88.2 187.2c-8.1.3-17.3 2.6-21.7 24 14.7-4.6 23.1-9.4 21.7-24z" fill="#9ec41a"/><path data-name="Path 91254" d="M44 181.6s-1.1 26.8 22.2 26.4c-2.9-21.5-9.1-24.1-22.2-26.4z" fill="#9ec41a"/><path data-name="Path 91255" d="M84.3 161.8s-18.3 1.5-19.1 22.1c9-1.4 20.5-5.8 19.1-22.1z" fill="#9ec41a"/><path data-name="Path 91256" d="M50.2 151.6s-1.9 21.9 14.7 25.4c-2-20.6-5.5-20.7-14.7-25.4z" fill="#9ec41a"/><path data-name="Path 91257" d="M82.7 140.1s-15.2-.6-16.5 18.1c10.6.6 13.4-2.5 16.5-18.1z" fill="#9ec41a"/><path data-name="Path 91258" d="M50.2 133.3s2.1 17.4 16.3 20.4c-1.6-10.7-3-20.9-16.3-20.4z" fill="#9ec41a"/><path data-name="Path 91259" d="M82 123.7a19.452 19.452 0 0 0-13 12.9c3.6 2.8 10.6 3.8 13-12.9z" fill="#9ec41a"/><path data-name="Path 91260" d="M54.5 121.8s3.2 14 14.1 12.6c0 .1-3.1-21.3-14.1-12.6z" fill="#9ec41a"/><path data-name="Path 91261" d="M69.4 112.3a37.012 37.012 0 0 0 0 18.2c6.1-6 5.2-7.9 0-18.2z" fill="#9ec41a"/></g><g data-name="Group 26537"><path data-name="Path 91262" d="M491 106.7c-7.7 61.1 3.4 112.4 6.2 124.7" fill="none" stroke="#6ccc44" stroke-miterlimit="10" stroke-width="1.444"/><path data-name="Path 91263" d="M518 178.6c-10 1-21.3 4.7-25 31.7 18.1-7 28.1-13.7 25-31.7z" fill="#6ccc44"/><path data-name="Path 91264" d="M462.6 175.4s.9 33.4 29.8 30.9c-5.3-26.5-13.3-29.1-29.8-30.9z" fill="#6ccc44"/><path data-name="Path 91265" d="M511.1 147.4s-22.6 3.4-21.9 29.1c11.1-2.6 25-9 21.9-29.1z" fill="#6ccc44"/><path data-name="Path 91266" d="M467.8 137.6s-.5 27.4 20.5 30.3c-4.3-25.4-8.7-25.2-20.5-30.3z" fill="#6ccc44"/><path data-name="Path 91267" d="M507.2 120.6s-18.9.6-18.9 24c13.3-.3 16.3-4.4 18.9-24z" fill="#6ccc44"/><path data-name="Path 91268" d="M466.2 114.9s4.1 21.4 22 24c-2.9-13.2-5.5-25.8-22-24z" fill="#6ccc44"/><path data-name="Path 91269" d="M504.9 100.2a24.048 24.048 0 0 0-15.1 17.1c4.8 3.3 13.6 3.8 15.1-17.1z" fill="#6ccc44"/><path data-name="Path 91270" d="M470.6 100.2s5.2 17.1 18.6 14.5c0 0-5.7-26.3-18.6-14.5z" fill="#6ccc44"/><path data-name="Path 91271" d="M488.3 87.1s-2.5 11.4 1.5 22.6c7.1-7.9 5.8-10.3-1.5-22.6z" fill="#6ccc44"/></g></g></svg>