<svg xmlns="http://www.w3.org/2000/svg" width="481.842" height="162.09" viewBox="0 0 481.842 162.09"><g transform="translate(-46.619 -172.11)"><path data-name="Path 87479" d="M46.62 334.2c34.61-18 100.85-44.63 279.17-44.63 69.7 0 141 30.14 202.67 44.63z" fill="#71af51"/><path data-name="Path 87480" d="M131.46 190.69c-12.78 56.47-7.06 105.48-5.53 117.32" fill="none" stroke="#9ec41a" stroke-miterlimit="10" stroke-width="1.51"/><path data-name="Path 87481" d="M150.26 260.45c-9.5.06-20.38 2.47-26.24 27.44 17.49-4.89 27.5-10.27 26.24-27.44z" fill="#9ec41a"/><path data-name="Path 87482" d="M98.68 252.49s-2.18 31.35 25.12 31.63c-2.6-25.27-9.8-28.48-25.12-31.63z" fill="#9ec41a"/><path data-name="Path 87483" d="M146.58 230.63s-21.48 1.11-23.12 25.29c10.54-1.43 24.19-6.19 23.12-25.29z" fill="#9ec41a"/><path data-name="Path 87484" d="M106.94 217.53s-3 25.64 16.44 30.26c-1.69-24.2-5.81-24.36-16.44-30.26z" fill="#9ec41a"/><path data-name="Path 87485" d="M145.39 205.19s-17.77-1.19-19.89 20.72c12.43.96 15.7-2.62 19.89-20.72z" fill="#9ec41a"/><path data-name="Path 87486" d="M107.55 196.16s1.94 20.4 18.46 24.44c-1.59-12.6-2.86-24.6-18.46-24.44z" fill="#9ec41a"/><path data-name="Path 87487" d="M145.07 186a22.8 22.8 0 0 0-15.69 14.66c4.19 3.34 12.34 4.72 15.69-14.66z" fill="#9ec41a"/><path data-name="Path 87488" d="M113 182.84s3.3 16.45 16.07 15.24c-.02 0-2.95-25.14-16.07-15.24z" fill="#9ec41a"/><path data-name="Path 87489" d="M130.71 172.11s-3.37 10.42-.63 21.26c7.37-6.73 6.4-9.01.63-21.26z" fill="#9ec41a"/><path data-name="Path 87490" d="M169.08 275.54c5.68-3.29 11.53-3.67 15.55-8.79s8.42-13.53 5.49-20.84-1.39-16.08.95-23.41-5.3-26-11-28.54-14.84-6.86-12.64 9.19-9.15 21.17-11.34 25.93-7.69 31.46 0 39.88 13 15 13 15z" fill="#80ce52"/><path data-name="Path 87491" d="M164.15 301.52c1.46-19.39 9.87-59.27 9.87-61.83s-.35 18.57-2.56 38.38-2.38 23.45-2.38 23.45z" fill="#9b2d69"/><path data-name="Path 87492" d="M407.75 208a273.23 273.23 0 0 0-13.34 91.09" fill="none" stroke="#138e68" stroke-miterlimit="10" stroke-width="1.13"/><path data-name="Path 87493" d="M417.05 263.9c-7.41-.68-16.08.36-22.58 19.39 14.02-2.49 22.24-5.9 22.58-19.39z" fill="#138e68"/><path data-name="Path 87494" d="M377.43 253.73s-4.11 24.28 17.16 26.6c-.09-19.91-5.48-22.98-17.16-26.6z" fill="#138e68"/><path data-name="Path 87495" d="M416.47 240.36s-16.83-.78-20 17.95c8.39-.31 19.37-2.97 20-17.95z" fill="#138e68"/><path data-name="Path 87496" d="M386.56 227.1s-4.27 19.76 10.5 24.86c.54-18.96-2.66-19.45-10.5-24.86z" fill="#138e68"/><path data-name="Path 87497" d="M417.5 220.42s-13.77-2.27-17.11 14.63c9.61 1.71 12.45-.83 17.11-14.63z" fill="#138e68"/><path data-name="Path 87498" d="M388.68 210.47s-.05 16.06 12.52 20.48c-.27-9.95-.33-19.43-12.52-20.48z" fill="#138e68"/><path data-name="Path 87499" d="M419.31 205.64a18.9 18.9 0 0 0-14.14 10.83c3.17 3.18 9.83 4.95 14.14-10.83z" fill="#138e68"/><path data-name="Path 87500" d="M393.94 200.5s1.31 13.08 11.36 13.13c0 0-.3-19.84-11.36-13.13z" fill="#138e68"/><path data-name="Path 87501" d="M408.58 193a35.72 35.72 0 0 0-2.25 17.52c6.67-4.92 6.02-6.89 2.25-17.52z" fill="#138e68"/><path data-name="Path 87502" d="M449.48 300.41c4.63-2.69 9.41-3 12.7-7.19s6.88-11.05 4.49-17-1.14-13.14.77-19.13-4.33-21.23-9-23.32-12.12-5.6-10.33 7.51-7.47 17.3-9.27 21.19-6.27 25.71 0 32.59 10.62 12.25 10.62 12.25z" fill="#80ce52"/><path data-name="Path 87503" d="M445.44 315.36c1.2-15.85 8.07-48.43 8.07-50.53s-.29 15.18-2.09 31.37-1.94 19.16-1.94 19.16z" fill="#9b2d69"/><path data-name="Path 87504" d="M440.45 221.13a259.109 259.109 0 0 0-12.64 86.33" fill="none" stroke="#78a33a" stroke-miterlimit="10" stroke-width="1.13"/><path data-name="Path 87505" d="M449.27 274.07c-7-.65-15.25.35-21.4 18.38 13.28-2.36 21.13-5.59 21.4-18.38z" fill="#78a33a"/><path data-name="Path 87506" d="M411.72 264.43s-3.9 23 16.26 25.21c-.08-18.87-5.2-21.77-16.26-25.21z" fill="#78a33a"/><path data-name="Path 87507" d="M448.72 251.76s-16-.75-18.93 17c7.92-.27 18.33-2.76 18.93-17z" fill="#78a33a"/><path data-name="Path 87508" d="M420.37 239.18s-4.05 18.74 9.95 23.57c.52-18.01-2.52-18.43-9.95-23.57z" fill="#78a33a"/><path data-name="Path 87509" d="M449.7 232.86s-13.06-2.16-16.22 13.87c9.12 1.62 11.8-.79 16.22-13.87z" fill="#78a33a"/><path data-name="Path 87510" d="M422.38 223.43s-.05 15.22 11.87 19.41c-.25-9.41-.32-18.41-11.87-19.41z" fill="#78a33a"/><path data-name="Path 87511" d="M450.86 218.61a16.92 16.92 0 0 0-12.66 9.7c2.8 2.84 8.8 4.42 12.66-9.7z" fill="#78a33a"/><path data-name="Path 87512" d="M427.37 214s1.24 12.4 10.76 12.44c0-.02-.33-18.82-10.76-12.44z" fill="#78a33a"/><path data-name="Path 87513" d="M441.26 207.34a32 32 0 0 0-2 15.67c5.92-4.44 5.37-6.2 2-15.67z" fill="#78a33a"/><path data-name="Path 87514" d="M417.88 284.34c4.78-2.77 9.72-3.1 13.11-7.41s7.09-11.4 4.63-17.57-1.18-13.55.8-19.73-4.47-21.9-9.27-24.06-12.5-5.78-10.65 7.75-7.71 17.85-9.56 21.86-6.48 26.52 0 33.61 10.94 12.64 10.94 12.64z" fill="#80ce52"/><path data-name="Path 87515" d="M413.72 306.24c1.23-16.35 8.33-50 8.33-52.12s-.3 15.66-2.16 32.35-2 19.77-2 19.77z" fill="#9b2d69"/><path data-name="Path 87516" d="M364.79 203.42a290.889 290.889 0 0 0 4.85 97.91" fill="none" stroke="#58b748" stroke-miterlimit="10" stroke-width="1.13"/><path data-name="Path 87517" d="M386 259.86c-7.89.81-16.73 3.69-19.6 24.91 14.17-5.49 22.06-10.77 19.6-24.91z" fill="#58b748"/><path data-name="Path 87518" d="M342.53 257.4s.71 26.22 23.42 24.25c-4.2-20.78-10.47-22.87-23.42-24.25z" fill="#58b748"/><path data-name="Path 87519" d="M380.57 235.38s-17.76 2.62-17.17 22.87c8.67-2.03 19.6-7.09 17.17-22.87z" fill="#58b748"/><path data-name="Path 87520" d="M346.58 227.69s-.39 21.53 16.09 23.82c-3.35-19.97-6.78-19.77-16.09-23.82z" fill="#58b748"/><path data-name="Path 87521" d="M377.53 214.34s-14.86.46-14.86 18.81c10.41-.15 12.84-3.43 14.86-18.81z" fill="#58b748"/><path data-name="Path 87522" d="M345.37 209.89s3.25 16.79 17.3 18.81c-2.33-10.31-4.36-20.23-17.3-18.81z" fill="#58b748"/><path data-name="Path 87523" d="M375.71 198.38a19 19 0 0 0-11.85 13.44c3.76 2.52 10.64 2.97 11.85-13.44z" fill="#58b748"/><path data-name="Path 87524" d="M348.81 198.38s4.06 13.41 14.57 11.37c0 0-4.46-20.65-14.57-11.37z" fill="#58b748"/><path data-name="Path 87525" d="M362.67 188a35.88 35.88 0 0 0 1.19 17.72c5.58-6.15 4.59-7.97-1.19-17.72z" fill="#58b748"/><path data-name="Path 87526" d="M193.22 203.75a290.5 290.5 0 0 0 4.86 97.91" fill="none" stroke="#58b748" stroke-miterlimit="10" stroke-width="1.13"/><path data-name="Path 87527" d="M214.46 260.19c-7.89.82-16.73 3.7-19.59 24.91 14.13-5.49 22.02-10.75 19.59-24.91z" fill="#58b748"/><path data-name="Path 87528" d="M171 257.73s.68 26.27 23.39 24.27c-4.2-20.8-10.47-22.89-23.39-24.27z" fill="#58b748"/><path data-name="Path 87529" d="M209 235.71s-17.75 2.66-17.17 22.87c8.67-2.03 19.6-7.09 17.17-22.87z" fill="#58b748"/><path data-name="Path 87530" d="M175 228s-.39 21.54 16.09 23.82c-3.33-19.95-6.77-19.75-16.09-23.82z" fill="#58b748"/><path data-name="Path 87531" d="M206 214.67s-14.86.46-14.86 18.82c10.38-.21 12.8-3.44 14.86-18.82z" fill="#58b748"/><path data-name="Path 87532" d="M173.8 210.22S177.06 227 191.11 229c-2.34-10.28-4.36-20.19-17.31-18.78z" fill="#58b748"/><path data-name="Path 87533" d="M204.15 198.72a19 19 0 0 0-11.85 13.44c3.75 2.51 10.63 2.97 11.85-13.44z" fill="#58b748"/><path data-name="Path 87534" d="M177.24 198.72s4.07 13.4 14.58 11.37c0 0-4.46-20.66-14.58-11.37z" fill="#58b748"/><path data-name="Path 87535" d="M191.11 188.37a35.89 35.89 0 0 0 1.19 17.72c5.57-6.18 4.58-8.01-1.19-17.72z" fill="#58b748"/><path data-name="Path 87536" d="M466.42 307c-4-3.91-8.76-5.45-11-10.52s-4.12-12.95-.16-18.39 4.52-13 4.12-19.55 9.84-20.36 15.08-21.29 13.7-2.55 8.52 10.26 3.12 19.42 3.94 23.81-.26 27.62-8.37 33-13.89 9.67-13.89 9.67z" fill="#71b051"/><path data-name="Path 87537" d="M465.05 329.49c2.86-16.33 4.27-51.06 4.81-53.18s-3.61 15.43-5.94 32.26-2.92 19.89-2.92 19.89z" fill="#a86556"/><path data-name="Path 87538" d="M493.77 241a257.251 257.251 0 0 0-4.08 86.66" fill="none" stroke="#9ec41a" stroke-miterlimit="10" stroke-width="1.13"/><path data-name="Path 87539" d="M507.66 292.51c-7 0-15.05 1.83-19.38 20.27 12.91-3.63 20.31-7.59 19.38-20.27z" fill="#9ec41a"/><path data-name="Path 87540" d="M469.56 286.63S468 309.79 488.12 310c-1.93-18.67-7.27-21-18.56-23.37z" fill="#9ec41a"/><path data-name="Path 87541" d="M504.94 270.48s-15.86.82-17.08 18.68c7.82-1.05 17.87-4.57 17.08-18.68z" fill="#9ec41a"/><path data-name="Path 87542" d="M475.66 260.81s-2.18 18.93 12.14 22.35c-1.24-17.88-4.29-17.99-12.14-22.35z" fill="#9ec41a"/><path data-name="Path 87543" d="M504.07 251.69s-13.13-.86-14.7 15.3c9.19.71 11.63-1.93 14.7-15.3z" fill="#9ec41a"/><path data-name="Path 87544" d="M476.11 245s1.44 15.07 13.64 18c-1.18-9.21-2.11-18.12-13.64-18z" fill="#9ec41a"/><path data-name="Path 87545" d="M503.82 237.48a16.83 16.83 0 0 0-11.58 10.83c3.09 2.53 9.11 3.52 11.58-10.83z" fill="#9ec41a"/><path data-name="Path 87546" d="M480.12 235.18s2.44 12.15 11.87 11.26c.01 0-2.16-18.57-11.87-11.26z" fill="#9ec41a"/><path data-name="Path 87547" d="M493.22 227.26a31.68 31.68 0 0 0-.46 15.7c5.44-4.96 4.72-6.66.46-15.7z" fill="#9ec41a"/><path data-name="Path 87548" d="M150.44 283.71c-5.67-3.29-11.52-3.67-15.55-8.79s-8.41-13.53-5.48-20.84 1.39-16.08-.95-23.41 5.3-26 11-28.54 14.83-6.86 12.64 9.19 9.15 21.17 11.34 25.93 7.68 31.46 0 39.88-13 15-13 15z" fill="#71b051"/><path data-name="Path 87549" d="M155.38 309.69c-1.46-19.39-9.88-59.27-9.88-61.83s.36 18.57 2.57 38.38 2.37 23.45 2.37 23.45z" fill="#a86556"/><path data-name="Path 87550" d="M96.73 194.18c-3.57 57.79 9.92 105.26 13.33 116.7" fill="none" stroke="#138e68" stroke-miterlimit="10" stroke-width="1.51"/><path data-name="Path 87551" d="M126.46 260c-9.37 1.59-19.72 5.71-21.51 31.29 16.47-7.62 25.5-14.51 21.51-31.29z" fill="#138e68"/><path data-name="Path 87552" d="M74.27 260.43s2.86 31.3 29.86 27.21c-6.62-24.53-14.27-26.55-29.86-27.21z" fill="#138e68"/><path data-name="Path 87553" d="M118.05 231.19s-21 4.53-18.77 28.66c10.21-3.1 22.89-9.98 18.77-28.66z" fill="#138e68"/><path data-name="Path 87554" d="M76.83 224.61S78 250.38 97.9 251.84c-5.54-23.62-9.64-23.11-21.07-27.23z" fill="#138e68"/><path data-name="Path 87555" d="M112.81 206.26S95.08 208 96.49 229.9c12.43-1.04 15.08-5.1 16.32-23.64z" fill="#138e68"/><path data-name="Path 87556" d="M74 203.41s5.18 19.83 22.13 21.17c-3.57-12.16-6.75-23.85-22.13-21.17z" fill="#138e68"/><path data-name="Path 87557" d="M109.41 187.33a22.78 22.78 0 0 0-13.14 17c4.73 2.67 12.95 2.67 13.14-17z" fill="#138e68"/><path data-name="Path 87558" d="M77.24 189.39s5.89 15.71 18.3 12.48c0 0-6.92-24.35-18.3-12.48z" fill="#138e68"/><path data-name="Path 87559" d="M93 176s-1.65 10.83 2.79 21.09c6.21-7.86 4.88-9.96-2.79-21.09z" fill="#138e68"/><path data-name="Path 87560" d="M221.43 296.8l-3.63-69.08 32.3-41.89 17.88 47.53v67.34z" fill="#efefef"/><path data-name="Path 87561" d="M325.53 294.51l3.22-61.15h-60.77v67.34z" fill="#d7d7d7"/><path data-name="Path 87562" d="M250.1 185.83h53.63l25.02 47.53h-60.77z" fill="#ffa929" stroke="#ffa929" stroke-linejoin="round" stroke-width="2.39"/><path data-name="Line 10891" fill="none" stroke="#ffa929" stroke-linecap="round" stroke-miterlimit="10" stroke-width="2.39" d="M215.54 230.34l34.56-44.51"/><path data-name="Path 87563" d="M261.48 192.63l11.38 33.11a.86.86 0 0 0 .82.58h43.24a.86.86 0 0 0 .77-1.25l-16.44-33a.86.86 0 0 0-.77-.48l-38.18-.07a.86.86 0 0 0-.82 1.11z" fill="#3b4863"/><rect data-name="Rectangle 27794" width="16.8" height="25.12" rx=".65" transform="translate(273.62 247.29)" fill="#67b8e3"/><rect data-name="Rectangle 27795" width="16.6" height="25.12" rx=".65" transform="translate(305.92 247.29)" fill="#67b8e3"/><rect data-name="Rectangle 27796" width="15.03" height="25.12" rx=".65" transform="translate(233.23 246.28)" fill="#a7d5ef"/></g></svg>