<svg data-name="Group 25318" xmlns="http://www.w3.org/2000/svg" width="33" height="33" viewBox="0 0 33 33"><ellipse data-name="Ellipse 2388" cx="16.5" cy="16.5" rx="16.5" ry="16.5" fill="#ffa929"/><g data-name="Group 1"><path data-name="Path 198" d="M14.663 7.073l9.435 9.45a.8.8 0 0 1 0 1.14l-9.435 9.435a.793.793 0 0 1-.585.24.738.738 0 0 1-.57-.24l-2.1-2.115a.707.707 0 0 1-.24-.555.76.76 0 0 1 .24-.57l6.75-6.765-6.75-6.75a.793.793 0 0 1-.24-.585.76.76 0 0 1 .24-.57l2.1-2.115a.738.738 0 0 1 .57-.24.77.77 0 0 1 .585.24z" fill="#fff"/></g></svg>