<svg xmlns="http://www.w3.org/2000/svg" width="13.68" height="8.78" viewBox="0 0 13.68 8.78"><defs><clipPath id="a"><path fill="none" d="M0 0h13.68v8.78H0z"/></clipPath></defs><g data-name="Group 2" clip-path="url(#a)"><path data-name="Path 199" d="M13.52 2.34l-6.3 6.28a.531.531 0 0 1-.76 0L.16 2.34A.528.528 0 0 1 0 1.95a.528.528 0 0 1 .16-.39L1.57.16A.507.507 0 0 1 1.95 0a.492.492 0 0 1 .38.16l4.51 4.5 4.5-4.5a.528.528 0 0 1 .39-.16.507.507 0 0 1 .38.16l1.41 1.4a.522.522 0 0 1 .16.38.535.535 0 0 1-.16.4z" fill="#c8c8c8"/></g></svg>