<svg xmlns="http://www.w3.org/2000/svg" width="209.741" height="64.307" viewBox="0 0 209.741 64.307"><g data-name="Group 2466"><g data-name="Group 2465"><g data-name="Group 2464" fill="none" stroke="#67b8e3" stroke-linecap="round" stroke-miterlimit="10" stroke-dasharray="5 5"><path data-name="Path 11834" d="M.782 50.189c62.233-34.64 101.98-3.028 109.682-3.208 11.395-.264 19.398-8.827 19.07-19.005s-12.727-16.672-16.257-1.916 6.072 23.757 10.936 28.886c7.416 7.828 19.36 9.749 30.134 4.8a39.663 39.663 0 0 0 12.8-9.56"/><path data-name="Path 11835" d="M168.923 48.069a25.519 25.519 0 0 0 1.558-2.208"/></g></g><g data-name="Group 2467"><path data-name="Path 11836" d="M146.274 25.026l22.543 5.005 40.923-19.619z" fill="#e5f3fa"/><path data-name="Path 11837" d="M168.817 30.031l2.91 13.211 38.018-32.829z" fill="#a7d5ef"/><path data-name="Path 11838" d="M171.728 43.242l6.662-10.878 31.35-21.952z" fill="#67b8e3"/><path data-name="Path 11839" d="M178.39 32.364l19.844 4.159 11.506-26.11z" fill="#e5f3fa"/></g></g></svg>