<svg xmlns="http://www.w3.org/2000/svg" width="943.2" height="404.72" viewBox="0 0 943.2 404.72"><defs><radialGradient id="a" cx="860.48" cy="89.87" r="63.653" gradientUnits="userSpaceOnUse"><stop offset="0" stop-color="#ffa929"/><stop offset=".11" stop-color="#ffb129" stop-opacity=".878"/><stop offset=".73" stop-color="#ffdd26" stop-opacity=".251"/><stop offset="1" stop-color="#ffee25" stop-opacity="0"/></radialGradient></defs><g transform="translate(-10.1 -26.28)"><path data-name="Path 89953" d="M10.1 431c28.36-10.16 35.51-62.09 319.16-55.74s472.36 8 513.64 2.61C887.7 372 920.23 380 953.3 431z" fill="#71b051"/><path data-name="Line 11141" fill="none" stroke="#fff" stroke-miterlimit="10" stroke-width="1.06" d="M366.83 327.17v-2.11"/><path data-name="Line 11142" fill="none" stroke="#fff" stroke-miterlimit="10" stroke-width="1.06" stroke-dasharray="4.26 4.26" d="M366.83 320.8V110.06"/><path data-name="Line 11143" fill="none" stroke="#fff" stroke-miterlimit="10" stroke-width="1.06" d="M366.83 107.93v-2.11"/><path data-name="Path 89954" d="M366.14 92.62l11.93 8.63-11.93 9.37z" fill="#fff"/><path data-name="Path 89956" d="M204.6 287.4a296.729 296.729 0 0 0-4.71 100" fill="none" stroke="#9ec41a" stroke-miterlimit="10" stroke-width="1.29"/><path data-name="Path 89957" d="M220.63 346.85c-8.1.06-17.37 2.11-22.37 23.39 14.9-4.19 23.44-8.75 22.37-23.39z" fill="#9ec41a"/><path data-name="Path 89958" d="M176.67 340.07s-1.87 26.72 21.4 27c-2.22-21.58-8.38-24.32-21.4-27z" fill="#9ec41a"/><path data-name="Path 89959" d="M217.49 321.44s-18.31.95-19.71 21.55c9.02-1.21 20.62-5.28 19.71-21.55z" fill="#9ec41a"/><path data-name="Path 89960" d="M183.7 310.28s-2.51 21.84 14 25.79c-1.42-20.63-4.94-20.76-14-25.79z" fill="#9ec41a"/><path data-name="Path 89961" d="M216.47 299.76s-15.14-1-16.95 17.66c10.6.81 13.38-2.24 16.95-17.66z" fill="#9ec41a"/><path data-name="Path 89962" d="M184.22 292.07s1.66 17.38 15.74 20.82c-1.36-10.71-2.44-20.99-15.74-20.82z" fill="#9ec41a"/><path data-name="Path 89963" d="M216.2 283.36a19.44 19.44 0 0 0-13.37 12.49c3.57 2.93 10.52 4.07 13.37-12.49z" fill="#9ec41a"/><path data-name="Path 89964" d="M188.85 280.71s2.82 14 13.7 13c0-.01-2.5-21.43-13.7-13z" fill="#9ec41a"/><path data-name="Path 89965" d="M204 271.57a36.59 36.59 0 0 0-.53 18.12c6.24-5.69 5.41-7.69.53-18.12z" fill="#9ec41a"/><path data-name="Path 89966" d="M236.67 362.89c4.83-2.8 9.82-3.13 13.25-7.49s7.17-11.53 4.67-17.76-1.18-13.71.81-19.95-4.52-22.14-9.37-24.33-12.64-5.84-10.77 7.84-7.79 18-9.66 22.1-6.55 26.81 0 34 11.07 12.78 11.07 12.78z" fill="#80ce52"/><path data-name="Path 89967" d="M232.46 385c1.24-16.53 8.41-50.51 8.41-52.69s-.3 15.83-2.18 32.71-2 20-2 20z" fill="#9b2d69"/><path data-name="Path 89968" d="M440.06 302.25a232.881 232.881 0 0 0-11.36 77.63" fill="none" stroke="#138e68" stroke-miterlimit="10" stroke-width=".97"/><path data-name="Path 89969" d="M448 349.86c-6.32-.58-13.71.31-19.24 16.52 11.93-2.12 18.94-5.03 19.24-16.52z" fill="#138e68"/><path data-name="Path 89970" d="M414.22 341.19s-3.5 20.7 14.63 22.67c-.08-16.97-4.68-19.58-14.63-22.67z" fill="#138e68"/><path data-name="Path 89971" d="M447.5 329.79s-14.35-.66-17 15.3c7.1-.25 16.5-2.53 17-15.3z" fill="#138e68"/><path data-name="Path 89972" d="M422 318.49s-3.65 16.85 8.94 21.19c.48-16.2-2.26-16.57-8.94-21.19z" fill="#138e68"/><path data-name="Path 89973" d="M448.38 312.81s-11.74-1.95-14.59 12.46c8.21 1.46 10.61-.71 14.59-12.46z" fill="#138e68"/><path data-name="Path 89974" d="M423.81 304.33s0 13.68 10.67 17.45c-.23-8.46-.28-16.56-10.67-17.45z" fill="#138e68"/><path data-name="Path 89975" d="M449.92 300.21a16.12 16.12 0 0 0-12.06 9.23c2.71 2.71 8.35 4.21 12.06-9.23z" fill="#138e68"/><path data-name="Path 89976" d="M428.3 295.82S429.41 307 438 307c0 0-.32-16.89-9.7-11.18z" fill="#138e68"/><path data-name="Path 89977" d="M440.77 289.47a30.41 30.41 0 0 0-1.91 14.93c5.65-4.23 5.14-5.91 1.91-14.93z" fill="#138e68"/><path data-name="Path 89978" d="M477.53 364.45c4-2.29 8-2.56 10.83-6.12s5.86-9.42 3.82-14.52-1-11.2.66-16.3-3.69-18.1-7.65-19.88-10.33-4.77-8.81 6.41-6.37 14.74-7.89 18-5.35 21.91 0 27.77 9 10.45 9 10.45z" fill="#80ce52"/><path data-name="Path 89979" d="M474.09 382.54c1-13.51 6.88-41.28 6.88-43.06s-.25 12.93-1.78 26.73-1.66 16.33-1.66 16.33z" fill="#9b2d69"/><path data-name="Path 89980" d="M472.75 310.14A220.629 220.629 0 0 0 462 383.72" fill="none" stroke="#78a33a" stroke-miterlimit="10" stroke-width=".97"/><path data-name="Path 89981" d="M480.26 355.27c-6-.56-13 .29-18.24 15.65 11.32-2 17.98-4.76 18.24-15.65z" fill="#78a33a"/><path data-name="Path 89982" d="M448.26 347s-3.33 19.62 13.86 21.49c-.07-16.04-4.43-18.49-13.86-21.49z" fill="#78a33a"/><path data-name="Path 89983" d="M479.79 336.25s-13.6-.64-16.14 14.5c6.76-.24 15.63-2.4 16.14-14.5z" fill="#78a33a"/><path data-name="Path 89984" d="M455.63 325.53s-3.45 16 8.48 20.09c.44-15.35-2.11-15.71-8.48-20.09z" fill="#78a33a"/><path data-name="Path 89985" d="M480.62 320.15S469.5 318.31 466.8 332c7.78 1.34 10.06-.71 13.82-11.85z" fill="#78a33a"/><path data-name="Path 89986" d="M457.34 312.11s0 13 10.12 16.54c-.23-8.02-.27-15.65-10.12-16.54z" fill="#78a33a"/><path data-name="Path 89987" d="M481.61 308a14.44 14.44 0 0 0-10.79 8.26c2.43 2.43 7.48 3.74 10.79-8.26z" fill="#78a33a"/><path data-name="Path 89988" d="M461.59 304.05s1.06 10.57 9.18 10.6c0 0-.29-16.02-9.18-10.6z" fill="#78a33a"/><path data-name="Path 89989" d="M473.43 298.39a27.24 27.24 0 0 0-1.72 13.36c5.06-3.75 4.59-5.28 1.72-13.36z" fill="#78a33a"/><path data-name="Path 89990" d="M448.7 361.93c4.07-2.36 8.28-2.64 11.17-6.31s6-9.72 3.94-15-1-11.55.68-16.81-3.81-18.67-7.89-20.51-10.66-4.92-9.08 6.61-6.57 15.21-8.15 18.62-5.52 22.61 0 28.65S448.7 368 448.7 368z" fill="#80ce52"/><path data-name="Path 89991" d="M445.15 380.59c1.05-13.93 7.1-42.58 7.1-44.42s-.26 13.35-1.84 27.58-1.71 16.84-1.71 16.84z" fill="#9b2d69"/><path data-name="Path 89992" d="M403.45 298.31a247.648 247.648 0 0 0 4.14 83.44" fill="none" stroke="#58b748" stroke-miterlimit="10" stroke-width=".97"/><path data-name="Path 89993" d="M421.55 346.41c-6.72.7-14.26 3.15-16.7 21.23 12.05-4.64 18.77-9.16 16.7-21.23z" fill="#58b748"/><path data-name="Path 89994" d="M384.48 344.32s.61 22.34 20 20.67c-3.62-17.72-8.96-19.5-20-20.67z" fill="#58b748"/><path data-name="Path 89995" d="M416.9 325.55s-15.13 2.26-14.64 19.49c7.39-1.73 16.74-6.04 14.64-19.49z" fill="#58b748"/><path data-name="Path 89996" d="M387.93 319s-.33 18.35 13.72 20.29c-2.86-17.01-5.79-16.84-13.72-20.29z" fill="#58b748"/><path data-name="Path 89997" d="M414.31 307.62s-12.66.39-12.66 16c8.87-.14 10.94-2.9 12.66-16z" fill="#58b748"/><path data-name="Path 89998" d="M386.9 303.83s2.77 14.31 14.75 16c-1.99-8.76-3.72-17.21-14.75-16z" fill="#58b748"/><path data-name="Path 89999" d="M412.76 294a16.22 16.22 0 0 0-10.1 11.46c3.2 2.16 9.06 2.54 10.1-11.46z" fill="#58b748"/><path data-name="Path 90000" d="M389.83 294s3.46 11.42 12.42 9.69c0 .02-3.8-17.58-12.42-9.69z" fill="#58b748"/><path data-name="Path 90001" d="M401.65 285.21a30.61 30.61 0 0 0 1 15.1c4.76-5.31 3.92-6.83-1-15.1z" fill="#58b748"/><path data-name="Path 90002" d="M257.24 301.71a247.761 247.761 0 0 0 4.13 83.44" fill="none" stroke="#58b748" stroke-miterlimit="10" stroke-width=".97"/><path data-name="Path 90003" d="M275.34 349.81c-6.73.7-14.26 3.15-16.7 21.23 12.04-4.68 18.77-9.16 16.7-21.23z" fill="#58b748"/><path data-name="Path 90004" d="M238.27 347.71s.61 22.35 20 20.67c-3.62-17.71-8.96-19.49-20-20.67z" fill="#58b748"/><path data-name="Path 90005" d="M270.68 329s-15.13 2.26-14.63 19.49c7.39-1.78 16.7-6.09 14.63-19.49z" fill="#58b748"/><path data-name="Path 90006" d="M241.72 322.4s-.33 18.35 13.71 20.29c-2.85-17.02-5.78-16.84-13.71-20.29z" fill="#58b748"/><path data-name="Path 90007" d="M268.1 311s-12.67.39-12.67 16c8.87-.12 10.94-2.88 12.67-16z" fill="#58b748"/><path data-name="Path 90008" d="M240.68 307.23s2.78 14.31 14.75 16c-1.99-8.76-3.71-17.23-14.75-16z" fill="#58b748"/><path data-name="Path 90009" d="M266.55 297.42a16.22 16.22 0 0 0-10.1 11.45c3.2 2.13 9.06 2.54 10.1-11.45z" fill="#58b748"/><path data-name="Path 90010" d="M243.62 297.42s3.46 11.42 12.42 9.69c-.04 0-3.8-17.6-12.42-9.69z" fill="#58b748"/><path data-name="Path 90011" d="M255.43 288.61a30.5 30.5 0 0 0 1 15.09c4.77-5.27 3.93-6.82-1-15.09z" fill="#58b748"/><path data-name="Path 90012" d="M490.06 363.9c-3.41-3.34-7.46-4.65-9.38-9s-3.51-11-.14-15.66 3.86-11.08 3.52-16.66 8.38-17.36 12.85-18.14 11.67-2.18 7.26 8.73 2.66 16.55 3.35 20.3-.21 23.54-7.13 28.09-11.83 8.25-11.83 8.25z" fill="#71b051"/><path data-name="Path 90013" d="M488.89 383.08c2.44-13.92 3.65-43.52 4.1-45.32s-3.07 13.14-5.06 27.49-2.52 16.95-2.52 16.95z" fill="#a86556"/><path data-name="Path 90014" d="M513.37 330.32a219.53 219.53 0 0 0-3.48 73.86" fill="none" stroke="#9ec41a" stroke-miterlimit="10" stroke-width=".97"/><path data-name="Path 90015" d="M525.21 374.24c-6 0-12.83 1.56-16.52 17.27 11.01-3.09 17.31-6.46 16.52-17.27z" fill="#9ec41a"/><path data-name="Path 90016" d="M492.74 369.23s-1.37 19.73 15.81 19.91c-1.64-15.91-6.19-17.93-15.81-19.91z" fill="#9ec41a"/><path data-name="Path 90017" d="M522.89 355.47s-13.52.7-14.55 15.92c6.66-.9 15.23-3.9 14.55-15.92z" fill="#9ec41a"/><path data-name="Path 90018" d="M497.94 347.22s-1.86 16.14 10.35 19c-1.06-15.22-3.66-15.28-10.35-19z" fill="#9ec41a"/><path data-name="Path 90019" d="M522.15 339.45s-11.19-.73-12.53 13c7.83.65 9.89-1.6 12.53-13z" fill="#9ec41a"/><path data-name="Path 90020" d="M498.32 333.77s1.23 12.84 11.63 15.38c-1.01-7.91-1.8-15.5-11.63-15.38z" fill="#9ec41a"/><path data-name="Path 90021" d="M521.94 327.34a14.34 14.34 0 0 0-9.87 9.23c2.63 2.16 7.76 3 9.87-9.23z" fill="#9ec41a"/><path data-name="Path 90022" d="M501.74 325.38s2.08 10.36 10.12 9.6c0 .02-1.86-15.83-10.12-9.6z" fill="#9ec41a"/><path data-name="Path 90023" d="M512.9 318.63a27 27 0 0 0-.39 13.38c4.64-4.23 4.02-5.67.39-13.38z" fill="#9ec41a"/><path data-name="Path 90024" d="M220.78 369.86c-4.83-2.81-9.82-3.14-13.25-7.5s-7.17-11.52-4.68-17.76 1.18-13.7-.81-20 4.52-22.14 9.37-24.32 12.64-5.84 10.77 7.83 7.8 18 9.67 22.1 6.54 26.81 0 34S220.78 377 220.78 377z" fill="#71b051"/><path data-name="Path 90025" d="M225 392c-1.25-16.52-8.42-50.51-8.42-52.69s.3 15.83 2.18 32.71 2 20 2 20z" fill="#a86556"/><path data-name="Path 90026" d="M175 290.38a297.05 297.05 0 0 0 11.36 99.45" fill="none" stroke="#138e68" stroke-miterlimit="10" stroke-width="1.29"/><path data-name="Path 90027" d="M200.34 346.5c-8 1.35-16.81 4.86-18.33 26.67 14.04-6.52 21.73-12.4 18.33-26.67z" fill="#138e68"/><path data-name="Path 90028" d="M155.86 346.84s2.44 26.68 25.45 23.18c-5.64-20.9-12.17-22.62-25.45-23.18z" fill="#138e68"/><path data-name="Path 90029" d="M193.17 321.92s-17.91 3.86-16 24.43c8.71-2.65 19.51-8.51 16-24.43z" fill="#138e68"/><path data-name="Path 90030" d="M158 316.31s1 22 18 23.21c-4.72-20.13-8.21-19.7-18-23.21z" fill="#138e68"/><path data-name="Path 90031" d="M188.7 300.68s-15.11 1.44-13.91 20.14c10.6-.89 12.86-4.35 13.91-20.14z" fill="#138e68"/><path data-name="Path 90032" d="M155.64 298.25s4.41 16.89 18.86 18c-3.05-10.33-5.76-20.25-18.86-18z" fill="#138e68"/><path data-name="Path 90033" d="M185.81 284.54a19.42 19.42 0 0 0-11.2 14.46c3.99 2.32 11.03 2.34 11.2-14.46z" fill="#138e68"/><path data-name="Path 90034" d="M158.39 286.3s5 13.39 15.6 10.63c.01 0-5.9-20.75-15.6-10.63z" fill="#138e68"/><path data-name="Path 90035" d="M171.84 274.85a36.63 36.63 0 0 0 2.38 18c5.27-6.69 4.14-8.48-2.38-18z" fill="#138e68"/><path data-name="Path 90036" d="M281.27 393.55l-3.09-58.87 27.53-35.71 15.23 40.51v57.39z" fill="#efefef"/><path data-name="Path 90037" d="M369.99 391.59l2.75-52.11h-51.8v57.39z" fill="#d7d7d7"/><path data-name="Path 90038" d="M305.71 298.97h45.7l21.33 40.51h-51.8z" fill="#ffa929" stroke="#ffa929" stroke-linejoin="round" stroke-width="2.03"/><path data-name="Line 11144" fill="none" stroke="#ffa929" stroke-linecap="round" stroke-miterlimit="10" stroke-width="2.03" d="M276.26 336.91l29.45-37.94"/><path data-name="Path 90039" d="M315.41 304.77l9.7 28.21a.73.73 0 0 0 .7.5h36.84a.74.74 0 0 0 .66-1.07l-14-28.14a.73.73 0 0 0-.66-.41l-32.53-.06a.73.73 0 0 0-.71.97z" fill="#3b4863"/><rect data-name="Rectangle 28412" width="14.32" height="21.41" rx=".83" transform="translate(325.75 351.35)" fill="#67b8e3"/><rect data-name="Rectangle 28413" width="14.15" height="21.41" rx=".83" transform="translate(353.28 351.35)" fill="#67b8e3"/><rect data-name="Rectangle 28414" width="12.81" height="21.41" rx=".83" transform="translate(291.34 350.49)" fill="#a7d5ef"/><path data-name="Path 90040" d="M713.38 325.18a230.213 230.213 0 0 0 8.8 77.09" fill="none" stroke="#138e68" stroke-miterlimit="10"/><path data-name="Path 90041" d="M733 368.68c-6.19 1-13 3.77-14.21 20.67 10.9-5.05 16.87-9.61 14.21-20.67z" fill="#138e68"/><path data-name="Path 90042" d="M698.54 368.94s1.89 20.68 19.73 18c-4.37-16.23-9.43-17.56-19.73-18z" fill="#138e68"/><path data-name="Path 90043" d="M727.47 349.62s-13.89 3-12.41 18.94c6.75-2.05 15.12-6.56 12.41-18.94z" fill="#138e68"/><path data-name="Path 90044" d="M700.23 345.28s.79 17 13.92 18c-3.66-15.61-6.36-15.28-13.92-18z" fill="#138e68"/><path data-name="Path 90045" d="M724 333.16s-11.71 1.12-10.78 15.61c8.21-.68 9.96-3.36 10.78-15.61z" fill="#138e68"/><path data-name="Path 90046" d="M698.37 331.28s3.42 13.09 14.62 14c-2.36-8.05-4.47-15.78-14.62-14z" fill="#138e68"/><path data-name="Path 90047" d="M721.75 320.65a15.06 15.06 0 0 0-8.67 11.22c3.09 1.79 8.55 1.8 8.67-11.22z" fill="#138e68"/><path data-name="Path 90048" d="M700.5 322s3.9 10.37 12.09 8.24c0 .02-4.59-16.07-12.09-8.24z" fill="#138e68"/><path data-name="Path 90049" d="M710.93 313.14a28.48 28.48 0 0 0 1.84 13.94c4.09-5.17 3.23-6.56-1.84-13.94z" fill="#138e68"/><path data-name="Path 90050" d="M693.7 339.2a230.129 230.129 0 0 1 4.81 77.43" fill="none" stroke="#26a87d" stroke-miterlimit="10" stroke-width=".95"/><path data-name="Path 90051" d="M682 385.46c6.27 0 13.48 1.43 17.6 17.87-11.6-3.08-18.29-6.52-17.6-17.87z" fill="#26a87d"/><path data-name="Path 90052" d="M716 379.69s1.75 20.69-16.28 21.14c1.43-16.71 6.18-18.91 16.28-21.14z" fill="#26a87d"/><path data-name="Path 90053" d="M684.11 365.73s14.19.52 15.52 16.47c-7-.83-16.04-3.85-15.52-16.47z" fill="#26a87d"/><path data-name="Path 90054" d="M710.16 356.69s2.2 16.9-10.56 20.14c.87-16 3.6-16.14 10.56-20.14z" fill="#26a87d"/><path data-name="Path 90055" d="M684.64 348.91S696.37 348 698 362.4c-8.22.76-10.41-1.57-13.36-13.49z" fill="#26a87d"/><path data-name="Path 90056" d="M709.55 342.58s-1.09 13.49-12 16.32c.97-8.32 1.69-16.3 12-16.32z" fill="#26a87d"/><path data-name="Path 90057" d="M684.67 336.2a15 15 0 0 1 10.5 9.53c-2.73 2.27-8.1 3.27-10.5-9.53z" fill="#26a87d"/><path data-name="Path 90058" d="M705.83 333.83s-2 10.9-10.47 10.23c0 0 1.69-16.64 10.47-10.23z" fill="#26a87d"/><path data-name="Path 90059" d="M694 326.92a28.33 28.33 0 0 1 .62 14c-4.92-4.34-4.3-5.86-.62-14z" fill="#26a87d"/><path data-name="Path 90060" d="M747.42 381.14c-3.84-2.72-8-3.37-10.55-7.28s-5.15-10.21-2.59-15.26 2-11.4.82-16.79 5.46-18.24 9.69-19.71 11.05-4 8.45 7.39 5.18 15.72 6.45 19.26 3.47 23-2.56 28.52-10.25 9.89-10.25 9.89z" fill="#65cc29"/><path data-name="Path 90061" d="M749.29 400c.19-14-3.26-43-3.1-44.84s-.94 13.3-.63 27.61.2 16.91.2 16.91c.73.68 1.75.99 3.53.32z" fill="#a33624"/><path data-name="Path 90062" d="M869.45 373.86c-3.05-2.16-6.36-2.67-8.39-5.79S857 360 859 355.94s1.61-9.07.66-13.35 4.34-14.51 7.7-15.67 8.79-3.14 6.72 5.87 4.12 12.5 5.13 15.32 2.76 18.28-2 22.67-8.15 7.87-8.15 7.87z" fill="#50a01d"/><path data-name="Path 90063" d="M870.94 388.89c.15-11.1-2.6-34.21-2.47-35.66s-.74 10.58-.5 21.95.16 13.45.16 13.45c.58.52 1.39.76 2.81.26z" fill="#a33624"/><path data-name="Path 90064" d="M817.27 386.69l-1.58-30.75 14.03-18.2 7.77 20.65v29.25z" fill="#efefef"/><path data-name="Path 90065" d="M862.41 386.74l1.48-28.35h-26.4v29.25z" fill="#d7d7d7"/><path data-name="Path 90066" d="M829.72 337.74h23.3l10.87 20.65h-26.4z" fill="#ffa929" stroke="#ffa929" stroke-linejoin="round" stroke-width="1.04"/><path data-name="Line 11145" fill="none" stroke="#ffa929" stroke-linecap="round" stroke-miterlimit="10" stroke-width="1.04" d="M814.71 355.33l15.01-17.59"/><path data-name="Path 90067" d="M834.67 340.69l4.94 14.38a.38.38 0 0 0 .36.26h18.78a.38.38 0 0 0 .34-.55L852 340.44a.39.39 0 0 0-.34-.21h-16.58a.37.37 0 0 0-.41.46z" fill="#3b4863"/><rect data-name="Rectangle 28415" width="7.3" height="10.91" rx=".82" transform="translate(839.76 367.78)" fill="#67b8e3"/><rect data-name="Rectangle 28416" width="7.21" height="10.91" rx=".82" transform="translate(853.8 367.78)" fill="#67b8e3"/><rect data-name="Rectangle 28417" width="6.53" height="10.91" rx=".82" transform="translate(822.22 367.34)" fill="#a7d5ef"/><path data-name="Path 90068" d="M768.25 396.7l-1.8-35.13 16.03-20.79 8.87 23.59v33.42z" fill="#efefef"/><path data-name="Path 90069" d="M820.65 396.08l.86-31.71h-30.16v33.42z" fill="#d7d7d7"/><path data-name="Path 90070" d="M782.48 340.78h26.61l12.42 23.59h-30.16z" fill="#ffa929" stroke="#ffa929" stroke-linejoin="round" stroke-width="1.18"/><path data-name="Line 11146" fill="none" stroke="#ffa929" stroke-linecap="round" stroke-miterlimit="10" stroke-width="1.18" d="M765.33 360.87l17.15-20.09"/><path data-name="Path 90071" d="M788.13 344.15l5.65 16.43a.43.43 0 0 0 .4.29h21.46a.42.42 0 0 0 .38-.62l-8.15-16.39a.44.44 0 0 0-.39-.24h-18.94a.43.43 0 0 0-.41.53z" fill="#3b4863"/><rect data-name="Rectangle 28418" width="8.34" height="12.47" rx=".82" transform="translate(793.95 376.33)" fill="#67b8e3"/><rect data-name="Rectangle 28419" width="8.24" height="12.47" rx=".82" transform="translate(809.98 376.33)" fill="#67b8e3"/><rect data-name="Rectangle 28420" width="7.46" height="12.47" rx=".82" transform="translate(773.91 375.82)" fill="#a7d5ef"/><path data-name="Path 90072" d="M561.92 293.59l-.84-2.24a2.068 2.068 0 0 0 .35 0c1.46.05 2.08 0 2-3.55 0-.27.86-.33.84-.57 0-.54-1.21-1.26-1.32-1.7a11.41 11.41 0 0 0-1.93-4.11c-1.14-1.77-4.65.93-6.22 2.83-1 1.21.38 4.18 1.55 5.26a22 22 0 0 1 1.41 5.62z" fill="#edaa72"/><path data-name="Path 90073" d="M561.19 292.89c2.27.94 27 7.07 27 7.07l-.29 1.6s-20.67-2.22-22.81-1.42-3.9-7.25-3.9-7.25z" fill="#50249f"/><path data-name="Path 90074" d="M574.89 315.38c-.77-2.56-2.52-9.33-4.16-12.3s-5.53-9.42-7.38-10.19-7.23-1.19-6.79 5.58 5.38 20.49 6.36 20.2 11.97-3.29 11.97-3.29z" fill="#5f37cc"/><path data-name="Path 90075" d="M593.3 346.19c1.28-.07 3.26-1.09 4.5-.66 1 .34.1.76-2.08 1.58a21.056 21.056 0 0 0-3.1 1.46c-1 .44-1.61-1.08-1-1.23a6 6 0 0 0 1.68-1.15z"/><path data-name="Path 90076" d="M576.46 315.68c1.34 1.71 12.75 21.86 13.75 24.32s3.35 6.53 3 6.75-1.1.78-1.58.59-9.78-15.89-11.52-18-11.67-8.59-12.45-9.88 8.8-3.78 8.8-3.78z" fill="#3b4863"/><path data-name="Path 90077" d="M595.17 339.61a6.27 6.27 0 0 0-4-3.68c-2.52-.63-5.17.93-9.72 3.15-4.72 2.3-12.09 6.34-13.64 7.23-1 .56-.24 2.75.17 2.68s18.92-6 19.17-6.11-1.45-2.3 1.34-4 3.36 2.26 5.11 1.41c.26-.17 1.57-.68 1.57-.68z" fill="#ffa929"/><path data-name="Path 90078" d="M594.65 340c.44 1.07 1 4.19-3.17 6.27s-9.33 1.2-23.23 3.25c-1 .16-2.12-1.76-.2-2.78 4.68-2.48 16.6-8.92 19.6-10.09s5.71.19 7 3.35z" fill="none" stroke="#3b4863" stroke-miterlimit="10" stroke-width=".16"/><path data-name="Line 11147" fill="none" stroke="#5e5e5e" stroke-linecap="round" stroke-miterlimit="10" stroke-width=".53" d="M589.77 341.78l4.4 6.05"/><path data-name="Rectangle 28421" fill="#5e5e5e" d="M596.459 348.013l-4.005 1.51-.377-1.002 4.005-1.51z"/><circle data-name="Ellipse 3065" cx="4.62" cy="4.62" r="4.62" transform="translate(585.02 336.81)" fill="none" stroke="#5e5e5e" stroke-miterlimit="10" stroke-width=".66"/><circle data-name="Ellipse 3066" cx="3.69" cy="3.69" r="3.69" transform="translate(585.95 337.74)" fill="none" stroke="#5e5e5e" stroke-miterlimit="10" stroke-width=".53"/><path data-name="Line 11148" fill="none" stroke="#ffa929" stroke-miterlimit="10" stroke-width=".16" d="M611.28 316.36l10.3 27.33"/><path data-name="Line 11149" fill="none" stroke="#ffa929" stroke-miterlimit="10" stroke-width=".16" d="M622.45 316.72l-12.04 26.61"/><path data-name="Line 11150" fill="none" stroke="#ffa929" stroke-miterlimit="10" stroke-width=".16" d="M630.09 324.88l-27.32 10.29"/><path data-name="Line 11151" fill="none" stroke="#ffa929" stroke-miterlimit="10" stroke-width=".16" d="M629.73 336.05L603.13 324"/><path data-name="Line 11152" fill="none" stroke="#ffa929" stroke-miterlimit="10" stroke-width=".16" d="M617.04 315.43l-1.22 29.18"/><path data-name="Line 11153" fill="none" stroke="#ffa929" stroke-miterlimit="10" stroke-width=".16" d="M627.18 320.14l-21.5 19.77"/><path data-name="Line 11154" fill="none" stroke="#ffa929" stroke-miterlimit="10" stroke-width=".16" d="M631.02 330.63l-29.18-1.21"/><path data-name="Line 11155" fill="none" stroke="#ffa929" stroke-miterlimit="10" stroke-width=".16" d="M626.32 340.77l-19.78-21.49"/><path data-name="Path 90079" d="M616.13 316.11a13.91 13.91 0 0 1 13 9.48 14.14 14.14 0 0 1-.48 10.64 13.17 13.17 0 0 1-7.65 7 12.851 12.851 0 0 1-4.29.73 13.91 13.91 0 0 1-13-9.49 13.72 13.72 0 0 1 8.13-17.61 12.85 12.85 0 0 1 4.29-.73m0-1a14.051 14.051 0 0 0-4.62.78 14.72 14.72 0 0 0-8.74 18.88 14.94 14.94 0 0 0 14 10.15 14.05 14.05 0 0 0 4.62-.78 14.72 14.72 0 0 0 8.74-18.88 14.94 14.94 0 0 0-14-10.15z" fill="#fff"/><path data-name="Path 90080" d="M616.13 315.12a14.94 14.94 0 0 1 14 10.15 14.72 14.72 0 0 1-8.74 18.88 14.05 14.05 0 0 1-4.62.78 14.94 14.94 0 0 1-14-10.15 14.72 14.72 0 0 1 8.74-18.88 14.049 14.049 0 0 1 4.62-.78m0-1a14.861 14.861 0 0 0-4.94.84 15.71 15.71 0 0 0-9.35 20.13 15.91 15.91 0 0 0 14.89 10.82 14.91 14.91 0 0 0 4.94-.84 15.12 15.12 0 0 0 8.79-8 16.09 16.09 0 0 0 .56-12.12 15.91 15.91 0 0 0-14.89-10.81z"/><path data-name="Line 11156" fill="none" stroke="#ffa929" stroke-miterlimit="10" stroke-width=".16" d="M563.39 334.41l10.3 27.32"/><path data-name="Line 11157" fill="none" stroke="#ffa929" stroke-miterlimit="10" stroke-width=".16" d="M574.56 334.77l-12.04 26.6"/><path data-name="Line 11158" fill="none" stroke="#ffa929" stroke-miterlimit="10" stroke-width=".16" d="M582.2 342.92l-27.33 10.3"/><path data-name="Line 11159" fill="none" stroke="#ffa929" stroke-miterlimit="10" stroke-width=".16" d="M581.84 354.09l-26.6-12.04"/><path data-name="Line 11160" fill="none" stroke="#ffa929" stroke-miterlimit="10" stroke-width=".16" d="M569.15 333.48l-1.22 29.18"/><path data-name="Line 11161" fill="none" stroke="#ffa929" stroke-miterlimit="10" stroke-width=".16" d="M579.29 338.18l-21.5 19.78"/><path data-name="Line 11162" fill="none" stroke="#ffa929" stroke-miterlimit="10" stroke-width=".16" d="M583.13 348.68l-29.18-1.22"/><path data-name="Line 11163" fill="none" stroke="#ffa929" stroke-miterlimit="10" stroke-width=".16" d="M578.42 358.82l-19.77-21.5"/><path data-name="Path 90081" d="M568.24 334.15a13.92 13.92 0 0 1 13 9.49 13.74 13.74 0 0 1-8.13 17.62 13.111 13.111 0 0 1-4.29.73 13.94 13.94 0 0 1-13-9.49 14.19 14.19 0 0 1 .49-10.64 13.15 13.15 0 0 1 11.94-7.71m0-1a14.069 14.069 0 0 0-4.62.79 14.72 14.72 0 0 0-8.74 18.88 14.93 14.93 0 0 0 14 10.14 14.1 14.1 0 0 0 4.62-.78 14.72 14.72 0 0 0 8.74-18.88 14.94 14.94 0 0 0-14-10.15z" fill="#fff"/><path data-name="Path 90082" d="M568.24 333.16a14.94 14.94 0 0 1 14 10.15 14.72 14.72 0 0 1-8.74 18.88 14.1 14.1 0 0 1-4.62.78 14.93 14.93 0 0 1-14-10.14 14.72 14.72 0 0 1 8.74-18.83 14.07 14.07 0 0 1 4.62-.79m0-1a15.06 15.06 0 0 0-13.73 8.79 16.09 16.09 0 0 0-.56 12.12A15.89 15.89 0 0 0 568.84 364a14.909 14.909 0 0 0 4.94-.84 15.72 15.72 0 0 0 9.35-20.16 15.9 15.9 0 0 0-14.89-10.81z"/><path data-name="Path 90083" d="M584.13 340.63c.24.39-.71.59-.94.27s-2.62-5.21-7.38-7.42c-3.93-1.83-7-2.7-13.35-.53-4.86 1.66-8.73 7.27-10.53 12.45s-.5-1.5.81-4.3a17.58 17.58 0 0 1 9.59-9.28 17.13 17.13 0 0 1 14.15.76c2.75 1.61 4.52 2.88 7.65 8.05z" fill="#ffc32c"/><path data-name="Line 11164" fill="none" stroke="#ffa929" stroke-linecap="round" stroke-miterlimit="10" stroke-width=".66" d="M567.98 349.43l-15.41-6.41"/><path data-name="Path 90084" d="M617.2 313.31c-4.33.35-7.46.47-12.33 5.05s-5.11 10.08-4.66 15.54-1.06-1.17-1-4.26a17.54 17.54 0 0 1 5.09-12.26c4.26-4.35 10.35-5.52 13.5-5 .67.07.83.81-.6.93z" fill="#ffc32c"/><path data-name="Line 11165" fill="none" stroke="#ffa929" stroke-linecap="round" stroke-miterlimit="10" stroke-width=".66" d="M616.25 330.19l-16.42 1.28"/><path data-name="Path 90085" d="M569.08 347.87c.28-1.62 1.4-9.57 2.51-12.75s4.92-7.31 4.92-7.31" fill="none" stroke="#ffa929" stroke-linecap="round" stroke-miterlimit="10" stroke-width=".99"/><path data-name="Path 90086" d="M569.57 348.43c1-.27 17.5-4.62 18.91-5.66s7.18-5.29 8.44-11.51-.38-8 5.25-16.83" fill="none" stroke="#ffc32c" stroke-linecap="round" stroke-miterlimit="10" stroke-width="1.98"/><path data-name="Path 90087" d="M589.18 341.32c-.9-.89-17.12-19.6-17.12-19.6" fill="none" stroke="#ffc32c" stroke-linecap="round" stroke-miterlimit="10" stroke-width="1.65"/><path data-name="Line 11166" fill="none" stroke="#ffa929" stroke-linecap="round" stroke-miterlimit="10" stroke-width="1.65" d="M616.43 330.02l-12.49-13.73"/><rect data-name="Rectangle 28422" width="1.26" height="12.11" rx=".63" transform="rotate(142.19 248.57 261.929)" fill="#ffa929"/><circle data-name="Ellipse 3067" cx="1.64" cy="1.64" r="1.64" transform="translate(587.98 340.3)" fill="#ffc32c"/><path data-name="Path 90088" d="M594.89 299.11c1.28.25 2.55-.4 3.07.53s2.32 3.63 2.19 4.47a9.539 9.539 0 0 1-2.53 3.59c-.57.27-3.17-5.27-4.06-6.29a3.06 3.06 0 0 0-2.22-1" fill="none" stroke="#ffc32c" stroke-linecap="round" stroke-miterlimit="10" stroke-width=".99"/><path data-name="Line 11167" fill="none" stroke="#000" stroke-miterlimit="10" stroke-width="1.65" d="M591.34 300.45l-4.59-.07"/><path data-name="Path 90089" d="M576.29 318.33a21.437 21.437 0 0 1-4.5 4.17 14.88 14.88 0 0 1-6.53 1.05 1.5 1.5 0 0 1-.21-2.64c1.1-.67 4.47-.39 6.36-1.2a43.8 43.8 0 0 0 4.11-2.16c.4-.21 1.07.38.77.78z"/><path data-name="Line 11168" fill="none" stroke="#5e5e5e" stroke-linecap="round" stroke-miterlimit="10" stroke-width=".53" d="M589.62 341.94l-5-5.84"/><path data-name="Rectangle 28423" fill="#5e5e5e" d="M586.456 335.709l-4.005 1.51-.377-1.002 4.005-1.51z"/><circle data-name="Ellipse 3068" cx="1.64" cy="1.64" r="1.64" transform="translate(566.85 346.55)" fill="#ffc32c"/><path data-name="Line 11169" fill="none" stroke="#23201b" stroke-miterlimit="10" stroke-width="1.65" d="M594.65 299.2l-4.59-.07"/><path data-name="Path 90090" d="M562.68 317.45c1.59-1.08 2.66-2.39 16.55-3.65 9.11-.82 12 .34 12.47 2.59s-6.37 14.89-7.44 16.74-1.19 1.69-2.36 1.8-.83-1.72.54-4.09c1.53-2.64 2-10.5 4.67-12.31-4.24 2.12-20.58 6-23.2 2.78-2.06-2.52-1.23-3.86-1.23-3.86z" fill="#405984"/><path data-name="Path 90091" d="M585.2 333.93c2.59 0 2.56-.68 2.4.16s-2.84 1.07-3.92 1.47-2 1.59-2.48 1.28-.16-2.68.07-2.79 2-.92 3-.52z"/><path data-name="Path 90092" d="M588.66 297.06c-.86-.23-23.39-3.19-26.14-4.43s-6.86.65-4.41 3.26 5.44 2.82 12.67 3.26 16-.56 17-.25 2.22-1.48.88-1.84z" fill="#5f37cc"/><path data-name="Path 90093" d="M593.7 300.05c1-.3.15-2.42-.94-2.5s-3.59-.11-3.59-.11l-.31 1.23a5.184 5.184 0 0 1 2.8.75c.8.75.66 1.07 2.04.63z" fill="#edaa72"/><path data-name="Path 90094" d="M589.92 301.48c1.31-.5-.47-1.46-1.72-1.52s-1.13 1-1.05 1.48 2.27.23 2.77.04z" fill="#ce8d5b"/><path data-name="Path 90095" d="M562.42 278.56c.61.77.22 2.11-1.4 2.89s-2.29 1.35-2.16 2.77 1.15 4-.09 5.91-1.81 4-3.47 4.15a10.24 10.24 0 0 0-5.51 2.9c-1.06 1.3-3.19 0-4-.45s-1.57-.47-2 .18-2.7-1.76-.21-2.94 4.64-3.06 4.35-4.5 2.61-2.53 3.92-3.84.42-3.67 1.83-4.28 4.3-.71 5-1.4 2.94-2.39 3.74-1.39z"/><circle data-name="Ellipse 3069" cx="39.18" cy="39.18" r="39.18" transform="translate(821.3 50.69)" fill="#ffa929"/><path data-name="Path 90096" d="M860.45 50.68a31.106 31.106 0 1 0 0 .03m0-24.43a63.64 63.64 0 1 0 14.48 1.67 63.641 63.641 0 0 0-14.48-1.67z" fill="url(#a)"/></g></svg>