<svg xmlns="http://www.w3.org/2000/svg" width="144.872" height="161.673" viewBox="0 0 144.872 161.673"><g data-name="Group 7560" transform="translate(-37.895 -488.86)"><ellipse data-name="Ellipse 1173" cx="46.326" cy="4.211" rx="46.326" ry="4.211" transform="translate(50.025 642.11)" fill="#3b4863"/><g data-name="Illustration 17"><g data-name="Group 7536"><path data-name="Path 28855" d="M82.64 551.547a280.946 280.946 0 0 0-9.819 94.23" fill="none" stroke="#50249f" stroke-miterlimit="10" stroke-width="1.166"/><path data-name="Path 28856" d="M94.595 608.59c-7.655-.386-16.525 1.06-22.39 20.897 14.299-3.157 22.615-7.013 22.39-20.897z" fill="#50249f"/><path data-name="Path 28857" d="M53.418 599.817s-3.194 25.15 18.777 26.621c-.936-20.467-6.615-23.387-18.777-26.621z" fill="#50249f"/><path data-name="Path 28858" d="M92.99 584.406s-17.347-.087-19.783 19.307c8.59-.661 19.771-3.88 19.783-19.307z" fill="#50249f"/><path data-name="Path 28859" d="M61.668 572.041s-3.546 20.508 11.852 25.11c-.248-19.553-3.562-19.868-11.852-25.11z" fill="#50249f"/><path data-name="Path 28860" d="M93.198 563.874s-14.26-1.754-16.968 15.772c9.974 1.335 12.767-1.397 16.968-15.772z" fill="#50249f"/><path data-name="Path 28861" d="M63.135 554.865s.633 16.516 13.754 20.523c-.71-10.198-1.178-19.964-13.754-20.523z" fill="#50249f"/><path data-name="Path 28862" d="M93.815 548.355a18.375 18.375 0 0 0-13.3 11.087c3.216 2.96 9.72 4.409 13.3-11.087z" fill="#50249f"/><path data-name="Path 28863" d="M68.12 544.383s1.9 13.4 12.245 13.011c0 0-1.216-20.382-12.246-13.011z" fill="#50249f"/><path data-name="Path 28864" d="M82.897 536.554a34.68 34.68 0 0 0-1.491 17.096c6.246-5.085 5.566-6.97 1.49-17.096z" fill="#50249f"/></g><g data-name="Group 7537"><path data-name="Path 28865" d="M49.13 553.745a280.945 280.945 0 0 1 12.473 93.912" fill="none" stroke="#26a87d" stroke-miterlimit="10" stroke-width="1.166"/><path data-name="Path 28866" d="M38.796 611.098c7.644-.601 16.549.594 22.971 20.253-14.39-2.746-22.807-6.368-22.97-20.253z" fill="#26a87d"/><path data-name="Path 28867" d="M79.707 601.17s3.907 25.059-18.024 27.14c.369-20.486 5.959-23.564 18.024-27.14z" fill="#26a87d"/><path data-name="Path 28868" d="M39.715 586.88s17.337-.573 20.313 18.753c-8.6-.431-19.865-3.332-20.313-18.752z" fill="#26a87d"/><path data-name="Path 28869" d="M70.677 573.643s4.122 20.399-11.14 25.443c-.304-19.572 3.002-19.974 11.14-25.443z" fill="#26a87d"/><path data-name="Path 28870" d="M38.928 566.353s14.206-2.15 17.406 15.29c-9.937 1.622-12.8-1.027-17.406-15.29z" fill="#26a87d"/><path data-name="Path 28871" d="M68.732 556.51s-.164 16.527-13.165 20.908c.412-10.22.604-19.995 13.165-20.909z" fill="#26a87d"/><path data-name="Path 28872" d="M37.873 550.868a18.375 18.375 0 0 1 13.606 10.706c-3.123 3.048-9.588 4.68-13.606-10.706z" fill="#26a87d"/><path data-name="Path 28873" d="M63.446 546.167s-1.526 13.447-11.869 13.352c0 .006.635-20.402 11.869-13.352z" fill="#26a87d"/><path data-name="Path 28874" d="M48.463 538.763a34.68 34.68 0 0 1 1.964 17.047c-6.385-4.902-5.76-6.81-1.964-17.047z" fill="#26a87d"/></g></g><g data-name="Group 7526"><g data-name="Group 3659"><path data-name="Path 15190" d="M168.018 520.693c1.225-.188 4.592-2.265 7.342-2.085 2.733.176 4.478-2.234 4.895-2.65.416-.398 2.922-3.337 2.072-3.804a7.358 7.358 0 0 0-3.988-.027c-.367.249-3.636 1.937-3.922 1.739s.993-3.765.53-4.121c-.467-.34-.95.12-.98 1.272-.025 1.13-1.058 1.67-1.533 2.375s-.636 1.632-1.318 1.943a27.569 27.569 0 0 1-4.194.586 12.782 12.782 0 0 0 1.096 4.772z" fill="#ffc673"/><path data-name="Path 15183" d="M104.121 644.351a27.331 27.331 0 0 0 4.911.505c.993 0 3.657-.662 2.577-1.741a4.263 4.263 0 0 0-3.622-1.323c-1.2.174-4.371-.836-4.458.505a2.906 2.906 0 0 0 .592 2.054z" fill="#1d1d1b"/><path data-name="Path 15184" d="M92.68 642.488c1.08-.331 2.333-.818 3.657.54 1.324 1.376.174 1.776-1.08 2.072s-3.413-.4-4.318-.435a.978.978 0 0 1-.313-1.828 8.61 8.61 0 0 1 2.054-.349z" fill="#1d1d1b"/><path data-name="Path 15185" d="M115.634 565.451c.993 10.222 2.333 23.787-9.316 76.829a3.06 3.06 0 0 1-2.577 0s-3.831-59.293-3.413-65.353c.418-6.077-2.246-.836-2.577 2.124s-7.975 51.318-5 63.455c-1.985.644-2.264.923-2.577-.7-.418-2.072-8.15-23.961-5.485-79.754 14.646.891 30.945 3.399 30.945 3.399z" fill="#506893"/><path data-name="Path 15186" d="M86.362 560.121s-5.66-13.513-6.478-21.14c-.836-7.627 3.622-23.787 7.157-25.093 3.518-1.306-.679 46.233-.679 46.233z" fill="#ed9829"/><path data-name="Path 15187" d="M99.379 513.227c3.489.122 8.411 1.167 18.964 4.649s38.5 1.72 49.6-2.415c2.142-.836 1.685 5.36 1.685 5.36-13.553 4.9-20.445 7.963-31.547 8.921a81.683 81.683 0 0 1-21.709-1.382s2.8 8.655-.984 37.091c-13.7 1.167-25.078-.662-30.673-3.413-.829-6.913-2.47-40.469.984-47.313.64-3.57 3.438-1.846 13.68-1.498z" fill="#ffa929"/><path data-name="Path 15191" d="M108.031 514.725c-1.271-1.759-1.95-2.386-1.619-4.789 1.41.122 1.968 0 4.127.07s1.863-8.184.784-11.928-1.916-6.635-6.147-7.8c-4.249-1.184-7.227-1.254-9.647.575-2.4 1.828.331 13.548 0 15.463s.157 4.353-2 6.547 14.502 1.862 14.502 1.862z" fill="#ffc673"/><path data-name="Path 15192" d="M110.165 490.694a3.517 3.517 0 0 1-1.08 3.744c-1.08.836-3.152 4.162-3.239 5.659s-.923 1.323-1.411 1.41c-.5.087-1.254 6.321-2.072 6.9-.836.575-5.241 2.159-6.147 1.411-.923-.749-1.323-.993-1.585-1.672-.244-.662-1.411-11.232-1.741-13.3s-.087-5 .992-5.416 10.553-.592 12.312 0 2.49-1.1 3.744-.383a.964.964 0 0 1 .227 1.647z" fill="#0e0c1b"/></g></g><g data-name="Illustration 14"><g data-name="Group 7546"><path data-name="Path 28935" d="M150.31 565.684a249.544 249.544 0 0 0-21.36 81.392" fill="none" stroke="#9ec41a" stroke-miterlimit="10" stroke-width="1.082"/><path data-name="Path 28936" d="M153.092 617.374c-6.665-1.373-14.653-1.304-22.481 15.318 12.985-.836 20.805-3.101 22.48-15.318z" fill="#9ec41a"/><path data-name="Path 28937" d="M118.131 604.108s-6.202 21.648 12.89 25.91c1.94-18.096-2.655-21.429-12.89-25.91z" fill="#9ec41a"/><path data-name="Path 28938" d="M154.954 595.927s-15.216-2.419-19.97 14.277c7.63.578 17.875-.735 19.97-14.277z" fill="#9ec41a"/><path data-name="Path 28939" d="M129.128 580.843s-5.889 17.522 7.009 23.654c2.426-17.21-.44-17.935-7.01-23.654z" fill="#9ec41a"/><path data-name="Path 28940" d="M157.913 577.924s-12.282-3.468-17.029 11.553c8.572 2.524 11.396.506 17.03-11.553z" fill="#9ec41a"/><path data-name="Path 28941" d="M132.74 565.957s-1.679 14.586 9.294 19.877c.76-9.05 1.669-17.686-9.294-19.877z" fill="#9ec41a"/><path data-name="Path 28942" d="M160.552 564.391a16.322 16.322 0 0 0-13.173 7.932c2.422 3.035 7.934 5.187 13.173-7.932z" fill="#9ec41a"/><path data-name="Path 28943" d="M138.531 557.43s-.137 12.02 8.99 13.078c-.001 0 1.69-18.057-8.99-13.078z" fill="#9ec41a"/><path data-name="Path 28944" d="M152.563 552.556a30.805 30.805 0 0 0-3.61 14.807c6.159-3.62 5.818-5.368 3.61-14.807z" fill="#9ec41a"/></g><g data-name="Group 7547"><path data-name="Path 28945" d="M125.455 562.958a249.543 249.543 0 0 0-8.057 83.76" fill="none" stroke="#138e68" stroke-miterlimit="10" stroke-width="1.082"/><path data-name="Path 28946" d="M136.474 613.539c-6.804-.289-14.67 1.059-19.74 18.72 12.681-2.91 20.041-6.394 19.74-18.72z" fill="#138e68"/><path data-name="Path 28947" d="M99.841 606.037s-2.66 22.361 16.874 23.516c-.983-18.178-6.05-20.73-16.874-23.516z" fill="#138e68"/><path data-name="Path 28948" d="M134.88 592.067s-15.408.046-17.428 17.29c7.62-.65 17.527-3.587 17.428-17.29z" fill="#138e68"/><path data-name="Path 28949" d="M106.971 581.31s-3.005 18.24 10.709 22.23c-.363-17.38-3.308-17.636-10.709-22.23z" fill="#138e68"/><path data-name="Path 28950" d="M134.92 573.821s-12.678-1.456-14.96 14.131c8.864 1.123 11.33-1.327 14.96-14.13z" fill="#138e68"/><path data-name="Path 28951" d="M108.155 566.04s.677 14.666 12.358 18.131c-.7-9.052-1.186-17.723-12.358-18.13z" fill="#138e68"/><path data-name="Path 28952" d="M135.359 560.042a16.322 16.322 0 0 0-11.73 9.942c2.873 2.604 8.658 3.846 11.73-9.942z" fill="#138e68"/><path data-name="Path 28953" d="M112.507 556.696s1.787 11.892 10.965 11.47c0 0-1.22-18.094-10.965-11.47z" fill="#138e68"/><path data-name="Path 28954" d="M125.57 549.637a30.805 30.805 0 0 0-1.191 15.195c5.505-4.559 4.89-6.23 1.192-15.195z" fill="#138e68"/></g></g></g></svg>